<?xml version="1.0" encoding="utf-8"?>
<!-- Generator: Adobe Illustrator 19.0.0, SVG Export Plug-In . SVG Version: 6.00 Build 0)  -->
<svg version="1.1" id="Layer_1" xmlns="http://www.w3.org/2000/svg" xmlns:xlink="http://www.w3.org/1999/xlink" x="0px" y="0px"
	 viewBox="0 0 400 171" style="enable-background:new 0 0 400 171;" xml:space="preserve">
<style type="text/css">
	.st0{fill:#00AEE5;}
	.st1{fill:#FB2A86;}
	.st2{fill:#FFFFFF;}
	.st3{fill:#123962;}
</style>
<g id="XMLID_2_">
	<g id="XMLID_1_">
		<path id="XMLID_7_" class="st0" d="M335.2,0H141.1C113,0,88.9,17,80,43H47v37h29v26c0,1.3,0.3,3,0.4,4H66v24h16.7
			c10.5,22,32.7,37,58.3,37h194.2c35.6,0,64.8-29.4,64.8-65V64.3C400,28.6,370.9,0,335.2,0z M79,66V55h13v11H79z M102,101H92v-9h10
			V101z"/>
	</g>
	<rect id="XMLID_676_" y="57.4" class="st1" width="21.8" height="20.1"/>
	<rect id="XMLID_641_" y="57.4" class="st1" width="21.8" height="20.1"/>
	<rect id="XMLID_1202_" y="57.4" class="st0" width="21.8" height="20.1"/>
	<rect id="XMLID_1201_" x="27.7" y="89.9" class="st0" width="24" height="22.1"/>
	<path id="XMLID_1198_" class="st0" d="M92,109.8C92,109.8,92,109.8,92,109.8L92,109.8L92,109.8L92,109.8z"/>
	<g id="XMLID_566_">
		<path id="XMLID_645_" class="st2" d="M130.1,87v35h-18.7V28.7h43.1c23.4,0,31.5,16.6,31.5,29.1c0,12.6-8,29.1-31.5,29.1H130.1z
			 M167.4,57.8c0-8.3-4.3-15.2-18.7-15.2h-18.7V73h18.7C163.1,73,167.4,66.1,167.4,57.8z"/>
		<path id="XMLID_651_" class="st2" d="M256,122V82.3h-39.6V122h-18.7V82.3v-14V28.7h18.7v39.6H256V28.7h18.7v39.6v14V122H256z"/>
		<path id="XMLID_653_" class="st2" d="M365.6,57.8c0,9.1-4.2,20.3-15.3,25.8l22.3,38.4h-21l-19.8-35h-22.2v35H291V28.7h43.1
			C357.6,28.7,365.6,45.3,365.6,57.8z M309.7,42.7V73h18.7c14.3,0,18.7-6.9,18.7-15.2c0-8.3-4.3-15.2-18.7-15.2H309.7z"/>
	</g>
	<g id="XMLID_22_">
		<path id="XMLID_657_" class="st3" d="M152.1,155.9v-22.9h10.3c5.7,0,7.4,3.2,7.4,6.3c0,1.6-0.7,3.2-2.2,4.5c2,1.2,3.3,3.2,3.3,5.5
			c0,4.2-2.8,6.6-7.1,6.6H152.1z M156.7,136.5v5.9h5.1c2.4,0,3.4-1.4,3.4-3c0-1.8-1.1-2.9-4.3-2.9H156.7z M166.4,149.4
			c0-2.5-1.7-3.6-4.6-3.6h-5.1v6.7h5.4C164.3,152.5,166.4,152,166.4,149.4z"/>
		<path id="XMLID_661_" class="st3" d="M219.3,152.5v3.4h-10.9h-3.7v-3.4v-19.4h4.6v19.4H219.3z"/>
		<path id="XMLID_669_" class="st3" d="M272.5,147.9c0,5.2-4.1,8.6-10,8.6s-10-3.4-10-8.6v-6.6c0-5,4.1-8.9,10-8.9s10,3.8,10,8.9
			V147.9z M262.4,135.9c-3.3,0-5.4,2-5.4,5.4v6.6c0,3.1,2.1,5.1,5.4,5.1s5.4-2,5.4-5.1v-6.6C267.9,138,265.8,135.9,262.4,135.9z"/>
		<path id="XMLID_674_" class="st3" d="M308.2,133.1l4.7,7.7l4.7-7.7h5.4l-7.4,10.9l8.6,12h-5.4l-5.9-8.9l-5.9,8.9h-5.4l8.6-12
			l-7.4-10.9H308.2z"/>
	</g>
</g>
</svg>
