<?xml version="1.0" encoding="iso-8859-1"?>
<!-- Generator: Adobe Illustrator 18.0.0, SVG Export Plug-In . SVG Version: 6.00 Build 0)  -->
<!DOCTYPE svg PUBLIC "-//W3C//DTD SVG 1.1//EN" "http://www.w3.org/Graphics/SVG/1.1/DTD/svg11.dtd">
<svg xmlns="http://www.w3.org/2000/svg" xmlns:xlink="http://www.w3.org/1999/xlink" version="1.1" id="Capa_1" x="0px" y="0px" viewBox="0 0 64.961 64.961" style="enable-background:new 0 0 64.961 64.961;" xml:space="preserve" width="512px" height="512px">
<g>
	<path d="M50.213,26.995H29.386c-0.446,0-0.809-0.362-0.809-0.809s0.362-0.809,0.809-0.809h20.827c0.446,0,0.809,0.362,0.809,0.809   S50.66,26.995,50.213,26.995z" fill="#D80027"/>
	<path d="M50.213,44.718H29.386c-0.446,0-0.809-0.362-0.809-0.809s0.362-0.809,0.809-0.809h20.827c0.446,0,0.809,0.362,0.809,0.809   S50.66,44.718,50.213,44.718z" fill="#D80027"/>
	<path d="M50.782,4.627h-0.801V1c0-0.552-0.447-1-1-1s-1,0.448-1,1v3.627h-3.5V1c0-0.552-0.447-1-1-1s-1,0.448-1,1v3.627h-3.5V1   c0-0.552-0.447-1-1-1s-1,0.448-1,1v3.627h-3.5V1c0-0.552-0.447-1-1-1s-1,0.448-1,1v3.627h-3.5V1c0-0.552-0.447-1-1-1s-1,0.448-1,1   v3.627h-3.5V1c0-0.552-0.447-1-1-1s-1,0.448-1,1v3.627h-3.5V1c0-0.552-0.447-1-1-1s-1,0.448-1,1v3.627h-0.802c-4.963,0-9,4.038-9,9   v42.333c0,4.962,4.037,9,9,9h36.603c4.963,0,9-4.038,9-9V13.627C59.782,8.665,55.745,4.627,50.782,4.627z M57.782,55.961   c0,3.86-3.141,7-7,7H14.179c-3.859,0-7-3.14-7-7V13.627c0-3.86,3.141-7,7-7h0.802v2.905c0,0.552,0.447,1,1,1s1-0.448,1-1V6.627h3.5   v2.905c0,0.552,0.447,1,1,1s1-0.448,1-1V6.627h3.5v2.905c0,0.552,0.447,1,1,1s1-0.448,1-1V6.627h3.5v2.905c0,0.552,0.447,1,1,1   s1-0.448,1-1V6.627h3.5v2.905c0,0.552,0.447,1,1,1s1-0.448,1-1V6.627h3.5v2.905c0,0.552,0.447,1,1,1s1-0.448,1-1V6.627h3.5v2.905   c0,0.552,0.447,1,1,1s1-0.448,1-1V6.627h0.801c3.859,0,7,3.14,7,7V55.961z M23.775,22.356l-4.916,7.866   c-0.146,0.233-0.381,0.396-0.651,0.451c-0.065,0.013-0.131,0.02-0.196,0.02c-0.206,0-0.408-0.063-0.578-0.184l-4.078-2.891   c-0.451-0.319-0.557-0.944-0.237-1.394c0.318-0.451,0.942-0.558,1.394-0.238l3.214,2.278l4.354-6.967   c0.292-0.468,0.908-0.612,1.378-0.318C23.925,21.271,24.068,21.888,23.775,22.356z M23.775,40.106l-4.916,7.866   c-0.146,0.233-0.381,0.396-0.651,0.451c-0.065,0.013-0.131,0.02-0.196,0.02c-0.206,0-0.408-0.063-0.578-0.184l-4.078-2.891   c-0.451-0.319-0.557-0.944-0.237-1.394c0.318-0.452,0.942-0.557,1.394-0.238l3.214,2.278l4.354-6.967   c0.292-0.468,0.908-0.611,1.378-0.318C23.925,39.021,24.068,39.638,23.775,40.106z" fill="#D80027"/>
</g>
<g>
</g>
<g>
</g>
<g>
</g>
<g>
</g>
<g>
</g>
<g>
</g>
<g>
</g>
<g>
</g>
<g>
</g>
<g>
</g>
<g>
</g>
<g>
</g>
<g>
</g>
<g>
</g>
<g>
</g>
</svg>
