<?xml version="1.0" encoding="utf-8"?>
<!-- Generator: Adobe Illustrator 21.0.0, SVG Export Plug-In . SVG Version: 6.00 Build 0)  -->
<svg version="1.1" id="Layer_1" xmlns="http://www.w3.org/2000/svg" xmlns:xlink="http://www.w3.org/1999/xlink" x="0px" y="0px"
	 viewBox="0 0 824 252" style="enable-background:new 0 0 824 252;" xml:space="preserve">
<style type="text/css">
	.st0{fill:url(#XMLID_2_);}
	.st1{fill:url(#XMLID_3_);}
	.st2{fill:url(#XMLID_4_);}
	.st3{fill:url(#XMLID_5_);}
	.st4{fill:url(#XMLID_6_);}
	.st5{fill:url(#XMLID_7_);}
	.st6{fill:url(#XMLID_8_);}
	.st7{fill:url(#XMLID_9_);}
	.st8{fill:url(#XMLID_10_);}
	.st9{fill:url(#XMLID_11_);}
	.st10{fill:url(#XMLID_12_);}
	.st11{fill:url(#XMLID_13_);}
	.st12{fill:url(#XMLID_14_);}
	.st13{fill:url(#XMLID_15_);}
	.st14{fill:url(#XMLID_16_);}
	.st15{fill:url(#XMLID_17_);}
	.st16{fill:url(#XMLID_18_);}
	.st17{fill:url(#XMLID_19_);}
	.st18{fill:url(#XMLID_20_);}
	.st19{fill:url(#XMLID_21_);}
	.st20{fill:url(#XMLID_22_);}
	.st21{fill:url(#XMLID_23_);}
	.st22{fill:url(#XMLID_24_);}
	.st23{fill:url(#XMLID_25_);}
	.st24{fill:url(#XMLID_26_);}
	.st25{fill:url(#XMLID_27_);}
	.st26{fill:url(#XMLID_28_);}
	.st27{fill:url(#XMLID_29_);}
	.st28{fill:url(#XMLID_30_);}
	.st29{fill:url(#XMLID_31_);}
	.st30{fill:url(#XMLID_32_);}
	.st31{fill:url(#XMLID_33_);}
	.st32{fill:url(#XMLID_34_);}
	.st33{fill:url(#XMLID_35_);}
	.st34{fill:url(#XMLID_36_);}
	.st35{fill:url(#XMLID_37_);}
	.st36{fill:url(#XMLID_38_);}
	.st37{fill:url(#XMLID_39_);}
	.st38{fill:url(#XMLID_40_);}
	.st39{fill:url(#XMLID_41_);}
	.st40{fill:url(#XMLID_42_);}
	.st41{fill:url(#XMLID_43_);}
	.st42{fill:url(#XMLID_44_);}
	.st43{fill:url(#XMLID_45_);}
	.st44{fill:url(#XMLID_46_);}
	.st45{fill:url(#XMLID_47_);}
	.st46{fill:url(#XMLID_48_);}
	.st47{fill:url(#XMLID_49_);}
	.st48{fill:url(#XMLID_50_);}
	.st49{fill:url(#XMLID_51_);}
	.st50{fill:url(#XMLID_52_);}
	.st51{fill:url(#XMLID_53_);}
	.st52{fill:url(#XMLID_54_);}
	.st53{fill:url(#XMLID_55_);}
	.st54{fill:url(#XMLID_56_);}
	.st55{fill:url(#XMLID_57_);}
	.st56{fill:url(#XMLID_58_);}
</style>
<g id="XMLID_723_">
	<g id="XMLID_867_">
		<g id="XMLID_980_">
			
				<linearGradient id="XMLID_2_" gradientUnits="userSpaceOnUse" x1="-88.651" y1="134.25" x2="919.9374" y2="134.25" gradientTransform="matrix(1 0 0 -1 0 252)">
				<stop  offset="0" style="stop-color:#213773"/>
				<stop  offset="1" style="stop-color:#00AEE5"/>
			</linearGradient>
			<path id="XMLID_981_" class="st0" d="M-48.2,222.9c45.5-17.3,87.7-49.7,128.5-81.1c26.4-20.3,53.7-41.3,81.2-57.5
				C267.9,21.6,408.3-36.8,550.6,68.7c12.4,9.2,24.9,19.2,37.1,29c68.6,55,139.5,111.9,228.8,56.6c41.5-25.7,100-87.3,80-143
				l2.1-0.8c20.4,56.9-38.8,119.6-80.9,145.7c-90.6,56.2-162.2-1.2-231.4-56.7c-12.1-9.7-24.7-19.8-37-28.9
				C408-34.2,268.5,23.9,162.7,86.2c-27.4,16.1-54.6,37.1-81,57.4c-40.9,31.5-83.3,64-129.2,81.4L-48.2,222.9z"/>
		</g>
		<g id="XMLID_978_">
			
				<linearGradient id="XMLID_3_" gradientUnits="userSpaceOnUse" x1="-88.651" y1="135.1681" x2="919.9374" y2="135.1681" gradientTransform="matrix(1 0 0 -1 0 252)">
				<stop  offset="0" style="stop-color:#213773"/>
				<stop  offset="1" style="stop-color:#00AEE5"/>
			</linearGradient>
			<path id="XMLID_979_" class="st1" d="M-46.7,219.1c42.7-17.5,83-48,121.9-77.4c27.9-21.1,56.8-43,86-59.5
				c72.4-41.3,135.9-63.8,194.1-68.7c69.4-5.8,132.3,12.7,192.2,56.7c12.2,8.9,24.6,18.7,36.6,28.2c68.8,54.3,140,110.5,229.3,57.9
				c41.5-24.4,100.5-84,82.3-139.9l2.2-0.7c18.7,57.2-41.2,117.8-83.3,142.6c-90.7,53.4-162.5-3.3-231.9-58
				c-12-9.5-24.4-19.3-36.5-28.1c-109.6-80.7-228-77-383.8,11.9c-29.1,16.5-57.9,38.3-85.8,59.4c-39,29.5-79.4,60.1-122.4,77.7
				L-46.7,219.1z"/>
		</g>
		<g id="XMLID_976_">
			
				<linearGradient id="XMLID_4_" gradientUnits="userSpaceOnUse" x1="-88.651" y1="135.9718" x2="919.9374" y2="135.9718" gradientTransform="matrix(1 0 0 -1 0 252)">
				<stop  offset="0" style="stop-color:#213773"/>
				<stop  offset="1" style="stop-color:#00AEE5"/>
			</linearGradient>
			<path id="XMLID_977_" class="st2" d="M-45.1,215.3c39.9-17.6,78.3-46.2,115.4-73.8C99.7,119.6,130.1,96.9,161,80
				c71.8-39.3,135-60.4,193.3-64.6c69-4.8,131.2,13.6,190.3,56.3c11.8,8.5,23.9,17.9,35.6,27c69.3,53.8,140.9,109.5,230.5,59.5
				c41.4-23.1,101-80.8,84.5-136.9l2.2-0.6c16.9,57.4-43.5,116-85.6,139.5c-90.9,50.7-163.1-5.4-233-59.7
				c-11.7-9.1-23.8-18.5-35.5-27C435.8-4.2,314.7-1.5,162.1,82c-30.7,16.8-61.1,39.4-90.4,61.3C34.5,171-4,199.7-44.2,217.4
				L-45.1,215.3z"/>
		</g>
		<g id="XMLID_974_">
			
				<linearGradient id="XMLID_5_" gradientUnits="userSpaceOnUse" x1="-88.651" y1="136.874" x2="919.9374" y2="136.874" gradientTransform="matrix(1 0 0 -1 0 252)">
				<stop  offset="0" style="stop-color:#213773"/>
				<stop  offset="1" style="stop-color:#00AEE5"/>
			</linearGradient>
			<path id="XMLID_975_" class="st3" d="M-43.5,211.5c36.9-17.5,73-44,107.8-69.6c31.2-22.9,63.5-46.7,96.4-64
				C312.9-2.2,433.9-3.7,541.6,73.2c11.5,8.2,23.4,17.3,34.8,26c69.6,53.3,141.7,108.3,231.3,61c41.4-21.9,101.5-77.5,86.8-133.8
				l2.2-0.6c15.1,57.6-45.9,114.2-87.9,136.4c-90.9,48-163.5-7.5-233.7-61.2c-12-9.2-23.3-17.8-34.8-26
				c-107-76.3-227.2-74.7-378.5,4.9c-32.8,17.2-65,40.9-96.1,63.8c-35,25.7-71.1,52.3-108.2,69.9L-43.5,211.5z"/>
		</g>
		<g id="XMLID_972_">
			
				<linearGradient id="XMLID_6_" gradientUnits="userSpaceOnUse" x1="-88.651" y1="137.709" x2="919.9374" y2="137.709" gradientTransform="matrix(1 0 0 -1 0 252)">
				<stop  offset="0" style="stop-color:#213773"/>
				<stop  offset="1" style="stop-color:#00AEE5"/>
			</linearGradient>
			<path id="XMLID_973_" class="st4" d="M-41.9,207.7c33.6-17.1,67.1-41.4,99.4-64.9c33.3-24.2,67.7-49.2,103-67
				c70.2-35.5,132.9-54,191.6-56.6c68-3,129,15.2,186.4,55.6c11.2,7.9,22.3,16.3,34.1,25.1c70,52.7,142.4,107.1,232.1,62.4
				c41.3-20.6,102-74.3,89-130.8l2.2-0.5c13.4,58.2-46.6,111.6-90.2,133.3c-90.9,45.3-167.2-12-234.5-62.6
				c-11.7-8.8-22.8-17.2-34-25.1C432.3,2.7,309.4,3.1,161.6,77.8c-35.1,17.8-69.5,42.7-102.7,66.8C26.5,168.1-7,192.5-40.8,209.7
				L-41.9,207.7z"/>
		</g>
		<g id="XMLID_970_">
			
				<linearGradient id="XMLID_7_" gradientUnits="userSpaceOnUse" x1="-88.651" y1="138.6477" x2="919.9374" y2="138.6477" gradientTransform="matrix(1 0 0 -1 0 252)">
				<stop  offset="0" style="stop-color:#213773"/>
				<stop  offset="1" style="stop-color:#00AEE5"/>
			</linearGradient>
			<path id="XMLID_971_" class="st5" d="M-40.3,203.9c30.1-16.5,60.5-38.4,89.9-59.6c35.7-25.6,72.6-52.2,110.7-70.6
				c147.3-71.4,270-70.5,375.2,2.6c11,7.6,21.9,15.7,33.4,24.2c67.1,49.6,143.2,105.9,232.9,63.8c42.9-20.1,102.6-70.7,91.3-127.7
				l2.2-0.4c11.5,58.3-49,109.8-92.6,130.2c-90.9,42.6-167.6-14-235.2-64.1c-11.5-8.5-22.4-16.5-33.3-24.2
				C429.8,5.6,307.8,4.8,161.3,75.7C123.4,94.1,86.6,120.6,51,146.2c-29.5,21.2-59.9,43.2-90.1,59.7L-40.3,203.9z"/>
		</g>
		<g id="XMLID_968_">
			
				<linearGradient id="XMLID_8_" gradientUnits="userSpaceOnUse" x1="-88.651" y1="139.5773" x2="919.9374" y2="139.5773" gradientTransform="matrix(1 0 0 -1 0 252)">
				<stop  offset="0" style="stop-color:#213773"/>
				<stop  offset="1" style="stop-color:#00AEE5"/>
			</linearGradient>
			<path id="XMLID_969_" class="st6" d="M-38.7,200.2c26.2-15.4,51.9-33.8,79.1-53.3c38.5-27.6,78.2-56.1,119.6-75.3
				c67.6-31.3,131.5-47.7,189.9-48.8c66.2-1.2,127.6,17.4,182.6,55c10.7,7.3,21.4,15.1,32.7,23.3c67.5,49,144,104.6,233.7,65.2
				c42.8-18.8,103-67.5,93.6-124.7l2.2-0.4c9.6,58.4-51.5,108-94.9,127.1c-90.9,40-167.9-16-235.9-65.4c-11.3-8.2-22-16-32.7-23.3
				C427.2,8.4,306,6.4,161,73.6c-41.3,19.1-80.9,47.6-119.3,75.1c-27.2,19.5-52.9,38-79.3,53.4L-38.7,200.2z"/>
		</g>
		<g id="XMLID_966_">
			
				<linearGradient id="XMLID_9_" gradientUnits="userSpaceOnUse" x1="-88.651" y1="140.567" x2="919.9374" y2="140.567" gradientTransform="matrix(1 0 0 -1 0 252)">
				<stop  offset="0" style="stop-color:#213773"/>
				<stop  offset="1" style="stop-color:#00AEE5"/>
			</linearGradient>
			<path id="XMLID_967_" class="st7" d="M-37.1,196.4c21.9-13.8,43.6-29.3,66.5-45.8c41.7-30,84.9-61,130.4-81.1
				C302.1,6.6,426.5,9.9,529.5,79.3c10.5,7.1,21,14.6,32.1,22.5c67.9,48.4,144.8,103.3,234.4,66.5c42.7-17.5,103.4-64.4,95.8-121.6
				l2.2-0.3c7.8,58.5-53.9,106.2-97.2,124c-90.7,37.3-168.2-18-236.6-66.8c-11.1-7.9-21.6-15.4-32-22.4
				C425.9,12.2,302.3,9,160.7,71.5c-45.3,20-88.3,50.9-130,80.8C7.7,168.8-14,184.4-36,198.2L-37.1,196.4z"/>
		</g>
		<g id="XMLID_964_">
			
				<linearGradient id="XMLID_10_" gradientUnits="userSpaceOnUse" x1="-88.651" y1="141.5594" x2="919.9374" y2="141.5594" gradientTransform="matrix(1 0 0 -1 0 252)">
				<stop  offset="0" style="stop-color:#213773"/>
				<stop  offset="1" style="stop-color:#00AEE5"/>
			</linearGradient>
			<path id="XMLID_965_" class="st8" d="M-35.5,192.6c17-11.4,33.8-23.7,51.7-36.7c45.6-33.1,92.8-67.4,143.3-88.6
				c66-27.7,129.3-41.5,188.2-40.9c65.2,0.7,125.3,19,178.8,54.4c10.3,6.8,20.6,14,31.5,21.7c68.3,47.8,145.6,102,235.1,67.8
				C835.7,154,896.9,109,891.2,51.7l2.3-0.2c5.9,58.5-56.3,104.4-99.5,120.9c-90.6,34.6-168.5-19.9-237.2-68.1
				c-10.9-7.6-21.2-14.9-31.4-21.6C423.2,15,300.5,10.5,160.4,69.4C110.1,90.5,63,124.7,17.5,157.8c-17.9,13-34.8,25.3-51.8,36.7
				L-35.5,192.6z"/>
		</g>
		<g id="XMLID_962_">
			
				<linearGradient id="XMLID_11_" gradientUnits="userSpaceOnUse" x1="-88.651" y1="142.5885" x2="919.9374" y2="142.5885" gradientTransform="matrix(1 0 0 -1 0 252)">
				<stop  offset="0" style="stop-color:#213773"/>
				<stop  offset="1" style="stop-color:#00AEE5"/>
			</linearGradient>
			<path id="XMLID_963_" class="st9" d="M-33.9,188.8c11.1-8,22.1-16.2,33.8-24.8c50.3-37.4,102.4-76,159.4-98.8
				c137.2-54.7,263.1-48.8,364.2,17.2c10.1,6.6,20.2,13.6,31,20.9c68.6,47.2,146.4,100.7,235.7,69c50.9-18,104-61.8,100.3-115.5
				l2.3-0.2c3.7,54.8-50.2,99.5-101.8,117.8c-90.4,32-168.7-21.8-237.8-69.3c-10.8-7.3-20.9-14.3-30.9-20.8
				c-100.4-65.5-225.6-71.4-362.1-17C103.5,89.9,51.5,128.5,1.3,165.8c-11.7,8.7-22.7,16.9-33.8,24.9L-33.9,188.8z"/>
		</g>
		<g id="XMLID_960_">
			
				<linearGradient id="XMLID_12_" gradientUnits="userSpaceOnUse" x1="-88.651" y1="143.7471" x2="919.9374" y2="143.7471" gradientTransform="matrix(1 0 0 -1 0 252)">
				<stop  offset="0" style="stop-color:#213773"/>
				<stop  offset="1" style="stop-color:#00AEE5"/>
			</linearGradient>
			<path id="XMLID_961_" class="st10" d="M-32.4,185l11.4-8.8C32.6,134.8,93.4,87.8,159.1,63C223.3,38.9,286,27.7,345.5,30
				c64.2,2.5,123.1,20.6,175,53.9c9.9,6.3,19.9,13.1,30.5,20.3c69,46.5,147.2,99.3,236.2,70.2c50.8-16.6,104.5-58.8,102.6-112.5
				l2.3-0.1c1.9,54.8-52.6,97.9-104.2,114.7c-90.1,29.4-168.8-23.7-238.2-70.5c-10.6-7.2-20.6-13.9-30.5-20.2
				c-98.9-63.4-226.5-70.7-359.4-20.6C94.5,89.9,33.9,136.7-19.6,178l-11.4,8.8L-32.4,185z"/>
		</g>
		<g id="XMLID_958_">
			
				<linearGradient id="XMLID_13_" gradientUnits="userSpaceOnUse" x1="-88.651" y1="143.654" x2="919.9374" y2="143.654" gradientTransform="matrix(1 0 0 -1 0 252)">
				<stop  offset="0" style="stop-color:#213773"/>
				<stop  offset="1" style="stop-color:#00AEE5"/>
			</linearGradient>
			<path id="XMLID_959_" class="st11" d="M-30.8,181.2C23.8,136.2,88,86.1,158.8,60.9C290.6,14,418,22.7,517.5,85.3
				c9.8,6.1,19.7,12.7,30.2,19.7c69.4,45.9,148,97.8,236.7,71.3c50.6-15.1,104.9-55.7,104.9-109.2c0-0.1,0-0.2,0-0.2h2.3
				c0,0.1,0,0.2,0,0.2c0,54.6-55.2,96-106.5,111.3c-89.8,27-172.4-27.6-238.7-71.4c-10.5-6.9-20.4-13.5-30.2-19.6
				c-98.9-62.3-225.5-70.9-356.7-24.2C89.1,88.2,25.1,138.1-29.3,183L-30.8,181.2z"/>
		</g>
		<g id="XMLID_956_">
			
				<linearGradient id="XMLID_14_" gradientUnits="userSpaceOnUse" x1="-88.651" y1="142.3889" x2="919.9374" y2="142.3889" gradientTransform="matrix(1 0 0 -1 0 252)">
				<stop  offset="0" style="stop-color:#213773"/>
				<stop  offset="1" style="stop-color:#00AEE5"/>
			</linearGradient>
			<path id="XMLID_957_" class="st12" d="M-29.2,177.5c43.9-38.6,111-93,187.7-118.6C221,38,283.1,29.5,343.3,33.6
				C406.4,37.9,464,55.8,514.4,87c9.7,6,19.5,12.4,30,19.1c66.2,42.9,148.7,96.3,237,72.3C833.6,164.2,887,125.8,888.5,72l2.3,0.1
				c-1.6,55-55.8,94.1-108.8,108.5c-89.3,24.2-172.2-29.5-238.8-72.6c-10.4-6.8-20.3-13.2-29.9-19.1c-97.5-60.3-226.6-70.5-354-27.9
				C83,86.5,16,140.6-27.7,179.1L-29.2,177.5z"/>
		</g>
		<g id="XMLID_954_">
			
				<linearGradient id="XMLID_15_" gradientUnits="userSpaceOnUse" x1="-88.651" y1="141.2345" x2="919.9374" y2="141.2345" gradientTransform="matrix(1 0 0 -1 0 252)">
				<stop  offset="0" style="stop-color:#213773"/>
				<stop  offset="1" style="stop-color:#00AEE5"/>
			</linearGradient>
			<path id="XMLID_955_" class="st13" d="M-27.6,173.7c62-58.4,124.5-97.8,185.9-116.9C284.4,17.4,413.2,29,511.4,88.5
				c9.6,5.8,19.4,12.1,29.9,18.7c66.5,42.2,149.3,94.8,237.2,73.3c52.1-12.7,106.1-49.6,109.4-103.3l2.3,0.1
				c-3.4,54.9-58.3,92.5-111.1,105.4c-88.8,21.7-172.1-31.1-238.9-73.6c-10.4-6.6-20.3-12.9-29.8-18.7
				c-97.7-59.2-225.7-70.7-351.3-31.5c-61,19-123.3,58.2-185,116.4L-27.6,173.7z"/>
		</g>
		<g id="XMLID_952_">
			
				<linearGradient id="XMLID_16_" gradientUnits="userSpaceOnUse" x1="-88.651" y1="140.0654" x2="919.9374" y2="140.0654" gradientTransform="matrix(1 0 0 -1 0 252)">
				<stop  offset="0" style="stop-color:#213773"/>
				<stop  offset="1" style="stop-color:#00AEE5"/>
			</linearGradient>
			<path id="XMLID_953_" class="st14" d="M-26,169.9C13.3,130.3,77.1,78.1,158.1,54.6C280.4,19.2,411.3,32.4,508.4,90
				c9.6,5.7,19.5,11.8,30,18.4c66.8,41.5,149.8,93.1,237.2,74.1c48.1-10.5,106.3-43,111.7-100.3l2.3,0.2
				c-5.5,58.5-64.6,91.6-113.4,102.3c-88.4,19.2-171.9-32.7-239-74.5c-10.5-6.5-20.4-12.7-29.9-18.3
				c-96.6-57.3-226.9-70.4-348.6-35.1c-80.5,23.4-144,75.3-183.1,114.7L-26,169.9z"/>
		</g>
		<g id="XMLID_950_">
			
				<linearGradient id="XMLID_17_" gradientUnits="userSpaceOnUse" x1="-88.651" y1="139.1791" x2="919.9374" y2="139.1791" gradientTransform="matrix(1 0 0 -1 0 252)">
				<stop  offset="0" style="stop-color:#213773"/>
				<stop  offset="1" style="stop-color:#00AEE5"/>
			</linearGradient>
			<path id="XMLID_951_" class="st15" d="M-24.4,166.1C27,110.6,91.8,70.2,157.8,52.5c120.1-32.2,250-17.6,347.6,39
				c9.6,5.6,19.7,11.7,30.3,18.1c66.9,40.7,150.3,91.4,237,74.8c48-9.2,106.7-40.1,113.9-97.2l2.2,0.3c-7.4,58.3-67,89.9-115.8,99.2
				c-87.6,16.7-171.3-34.2-238.6-75.1c-10.6-6.4-20.6-12.5-30.2-18.1c-97-56.3-226.3-70.8-345.9-38.7
				c-65.5,17.5-129.9,57.6-181,112.9L-24.4,166.1z"/>
		</g>
		<g id="XMLID_948_">
			
				<linearGradient id="XMLID_18_" gradientUnits="userSpaceOnUse" x1="-88.651" y1="138.1027" x2="919.9374" y2="138.1027" gradientTransform="matrix(1 0 0 -1 0 252)">
				<stop  offset="0" style="stop-color:#213773"/>
				<stop  offset="1" style="stop-color:#00AEE5"/>
			</linearGradient>
			<path id="XMLID_949_" class="st16" d="M-22.8,162.3C25.1,107,89.1,67.2,157.6,50.4c116-28.5,248.1-12.2,344.8,42.6
				c9.8,5.5,20,11.6,30.8,18c67.1,39.9,150.6,89.6,236.6,75.4c47.9-7.9,107.1-37.3,116.2-94.2l2.2,0.4
				c-9.3,58.1-69.4,88.1-118.1,96.1C683.4,203,599.5,153.1,532,113c-10.8-6.4-21-12.5-30.7-18c-96.2-54.5-227.7-70.8-343.2-42.4
				c-68,16.7-131.7,56.2-179.2,111.2L-22.8,162.3z"/>
		</g>
		<g id="XMLID_946_">
			
				<linearGradient id="XMLID_19_" gradientUnits="userSpaceOnUse" x1="-88.651" y1="137.2453" x2="919.9374" y2="137.2453" gradientTransform="matrix(1 0 0 -1 0 252)">
				<stop  offset="0" style="stop-color:#213773"/>
				<stop  offset="1" style="stop-color:#00AEE5"/>
			</linearGradient>
			<path id="XMLID_947_" class="st17" d="M-21.2,158.6C23.5,103.2,86.9,64.1,157.4,48.3C270.9,22.9,402,40.6,499.5,94.5
				c10,5.5,20.5,11.6,31.6,18.1c67.2,39.1,150.8,87.7,235.9,75.9c50.1-6.9,107.6-34.5,118.5-91.1l2.2,0.4
				c-11.1,57.8-69.5,85.9-120.4,93c-85.9,11.9-169.9-37-237.4-76.2c-11.1-6.5-21.6-12.5-31.5-18c-97-53.6-227.5-71.3-340.5-46
				C87.9,66.2,24.9,105-19.4,160L-21.2,158.6z"/>
		</g>
		<g id="XMLID_944_">
			
				<linearGradient id="XMLID_20_" gradientUnits="userSpaceOnUse" x1="-88.651" y1="136.3867" x2="919.9374" y2="136.3867" gradientTransform="matrix(1 0 0 -1 0 252)">
				<stop  offset="0" style="stop-color:#213773"/>
				<stop  offset="1" style="stop-color:#00AEE5"/>
			</linearGradient>
			<path id="XMLID_945_" class="st18" d="M-19.6,154.8C22.1,99.3,84.9,60.7,157.1,46.2c109.1-22,242.3-2.4,339.3,49.9
				c10.2,5.5,21.1,11.7,32.7,18.2c67.2,38.2,150.7,85.7,234.9,76.2c50-5.6,108-31.7,120.8-88.1l2.2,0.5
				c-13,57.5-71.9,84.1-122.7,89.8c-84.9,9.5-168.9-38.2-236.3-76.5c-11.5-6.5-22.4-12.7-32.6-18.2c-96.5-52-229.1-71.5-337.7-49.6
				C86,62.8,23.7,101.1-17.7,156.1L-19.6,154.8z"/>
		</g>
		<g id="XMLID_942_">
			
				<linearGradient id="XMLID_21_" gradientUnits="userSpaceOnUse" x1="-88.651" y1="135.6788" x2="919.9374" y2="135.6788" gradientTransform="matrix(1 0 0 -1 0 252)">
				<stop  offset="0" style="stop-color:#213773"/>
				<stop  offset="1" style="stop-color:#00AEE5"/>
			</linearGradient>
			<path id="XMLID_943_" class="st19" d="M-18,151C21.1,95.2,83.2,57.2,156.9,44c106.2-19,238.3,2,336.5,53.5
				c10.6,5.6,22,11.9,34.1,18.6c67.1,37.2,150.5,83.5,233.6,76.4c64.7-5.6,110.7-37.4,123-85l2.2,0.6c-12.6,48.6-59.3,81.1-125,86.7
				c-83.8,7.2-167.6-39.3-234.9-76.7c-12-6.7-23.4-13-34-18.6c-97.8-51.3-229.3-72.2-335-53.3C84.1,59.4,22.6,97-16.1,152.3L-18,151
				z"/>
		</g>
		<g id="XMLID_940_">
			
				<linearGradient id="XMLID_22_" gradientUnits="userSpaceOnUse" x1="-88.651" y1="135.0453" x2="919.9374" y2="135.0453" gradientTransform="matrix(1 0 0 -1 0 252)">
				<stop  offset="0" style="stop-color:#213773"/>
				<stop  offset="1" style="stop-color:#00AEE5"/>
			</linearGradient>
			<path id="XMLID_941_" class="st20" d="M-16.4,147.2c37.1-57,96.9-93.4,173-105.2c125.1-19.5,258,18.6,333.7,57.1
				c11.1,5.6,23.1,12.2,35.9,19.1c66.9,36.2,150.1,81.3,231.9,76.4c31.1-1.9,105.4-13.6,125.3-82l2.2,0.6
				c-20.3,69.8-95.8,81.7-127.3,83.6c-82.5,5-166-40.3-233.1-76.7c-12.7-6.9-24.8-13.4-35.8-19.1c-75.5-38.4-207.8-76.3-332.3-56.9
				C81.5,56,22.2,92-14.5,148.5L-16.4,147.2z"/>
		</g>
		<g id="XMLID_938_">
			
				<linearGradient id="XMLID_23_" gradientUnits="userSpaceOnUse" x1="-88.651" y1="134.4585" x2="919.9374" y2="134.4585" gradientTransform="matrix(1 0 0 -1 0 252)">
				<stop  offset="0" style="stop-color:#213773"/>
				<stop  offset="1" style="stop-color:#00AEE5"/>
			</linearGradient>
			<path id="XMLID_939_" class="st21" d="M-14.8,143.5C19.9,86,79.1,50.1,156.4,39.8c120.7-16.1,253.7,22.7,331,60.8
				c11.7,5.8,24.5,12.6,38.1,19.8c66.5,35.2,149.3,79,229.7,76.2c65.6-2.3,112.1-31.1,127.6-78.9l2.2,0.7
				c-15.8,48.9-63.1,78.2-129.7,80.5c-81,2.8-167.6-43-230.9-76.5c-13.6-7.2-26.4-14-38.1-19.7c-77-37.9-209.5-76.5-329.6-60.5
				C80.1,52.3,21.5,87.8-12.9,144.6L-14.8,143.5z"/>
		</g>
		<g id="XMLID_936_">
			
				<linearGradient id="XMLID_24_" gradientUnits="userSpaceOnUse" x1="-88.651" y1="133.9106" x2="919.9374" y2="133.9106" gradientTransform="matrix(1 0 0 -1 0 252)">
				<stop  offset="0" style="stop-color:#213773"/>
				<stop  offset="1" style="stop-color:#00AEE5"/>
			</linearGradient>
			<path id="XMLID_937_" class="st22" d="M-13.2,139.7c32.5-58.1,91-93.3,169.4-102C271.9,25,405.3,64.4,484.3,102.1
				c12.4,5.9,26.2,13.1,40.9,20.6c66.1,34.1,148.3,76.6,227.1,75.9c38.5-0.4,106.6-10.7,129.8-75.9l2.1,0.8
				c-23.7,66.5-92.9,77-132,77.4c-79.4,0.7-161.9-41.9-228.2-76.1c-14.6-7.6-28.4-14.7-40.8-20.6c-78.8-37.6-211.7-76.9-327-64.2
				C78.8,48.5,20.9,83.4-11.2,140.8L-13.2,139.7z"/>
		</g>
		<g id="XMLID_934_">
			
				<linearGradient id="XMLID_25_" gradientUnits="userSpaceOnUse" x1="-88.651" y1="133.529" x2="919.9374" y2="133.529" gradientTransform="matrix(1 0 0 -1 0 252)">
				<stop  offset="0" style="stop-color:#213773"/>
				<stop  offset="1" style="stop-color:#00AEE5"/>
			</linearGradient>
			<path id="XMLID_935_" class="st23" d="M-11.6,135.9C18.7,77.2,76.7,42.5,155.9,35.6c109.9-9.6,240.2,28.8,325.4,68
				c13.3,6.1,28.2,13.6,44.1,21.7c65.4,33,146.9,74.1,224,75.3c38.5,0.6,106.9-8,132.1-72.9l2.1,0.8c-19.1,49-66.8,75.4-134.3,74.3
				c-77.6-1.3-159.3-42.5-225-75.6c-15.9-8-30.8-15.6-44-21.6c-85-39-214.8-77.4-324.3-67.8C77.7,44.7,20.4,79-9.6,137L-11.6,135.9z
				"/>
		</g>
		<g id="XMLID_932_">
			
				<linearGradient id="XMLID_26_" gradientUnits="userSpaceOnUse" x1="-88.651" y1="133.0764" x2="919.9374" y2="133.0764" gradientTransform="matrix(1 0 0 -1 0 252)">
				<stop  offset="0" style="stop-color:#213773"/>
				<stop  offset="1" style="stop-color:#00AEE5"/>
			</linearGradient>
			<path id="XMLID_933_" class="st24" d="M-10,132.2c28.3-59.5,85.6-93.6,165.7-98.7c130-8.3,279.8,52.7,322.6,71.6
				c14.2,6.3,30.6,14.3,47.9,22.9c64.6,31.8,145.1,71.5,220.3,74.6c47,2,108.5-8.6,134.4-69.8l2.1,0.9
				c-26.4,62.4-88.8,73.2-136.6,71.2c-75.6-3.2-156.3-42.9-221.2-74.9c-17.3-8.5-33.7-16.6-47.8-22.9
				c-42.7-18.9-192-79.7-321.6-71.4C75.5,40.9,20.4,73.7-8,133.1L-10,132.2z"/>
		</g>
		<g id="XMLID_930_">
			
				<linearGradient id="XMLID_27_" gradientUnits="userSpaceOnUse" x1="-88.651" y1="132.7228" x2="919.9374" y2="132.7228" gradientTransform="matrix(1 0 0 -1 0 252)">
				<stop  offset="0" style="stop-color:#213773"/>
				<stop  offset="1" style="stop-color:#00AEE5"/>
			</linearGradient>
			<path id="XMLID_931_" class="st25" d="M-8.4,128.4c26.7-61,81.8-93.6,163.9-97c112.8-4.6,248.8,45.2,319.8,75.3
				c15.3,6.5,33.3,15.1,52.3,24.3c63.7,30.7,142.9,68.8,216,73.7c47.1,3.1,109-5.9,136.7-66.8l2.1,0.9
				c-28.2,62.1-91.1,71.3-138.9,68.1C670,202,590.6,163.7,526.7,133c-19-9.2-37-17.8-52.2-24.3C403.6,78.7,268,29,155.7,33.6
				C74.5,37,20,69.1-6.3,129.3L-8.4,128.4z"/>
		</g>
		<g id="XMLID_928_">
			
				<linearGradient id="XMLID_28_" gradientUnits="userSpaceOnUse" x1="-88.651" y1="132.3316" x2="919.9374" y2="132.3316" gradientTransform="matrix(1 0 0 -1 0 252)">
				<stop  offset="0" style="stop-color:#213773"/>
				<stop  offset="1" style="stop-color:#00AEE5"/>
			</linearGradient>
			<path id="XMLID_929_" class="st26" d="M-6.8,124.6c24.8-61.8,79.3-93.9,162-95.3c116.9-2,262.3,56.8,317.1,78.9
				c16.5,6.7,36.4,16,57.4,25.9c62.5,29.4,140.3,66.1,211,72.6c68.5,6.3,115.3-15.1,139-63.7l2,1c-24.2,49.5-71.7,71.4-141.2,65
				c-71.1-6.5-149.1-43.3-211.8-72.8c-21-9.9-40.8-19.2-57.2-25.9c-54.7-22.1-199.8-80.7-316.2-78.7c-81.7,1.4-135.6,33-160,93.8
				L-6.8,124.6z"/>
		</g>
		<g id="XMLID_926_">
			
				<linearGradient id="XMLID_29_" gradientUnits="userSpaceOnUse" x1="-88.651" y1="132.2009" x2="919.9374" y2="132.2009" gradientTransform="matrix(1 0 0 -1 0 252)">
				<stop  offset="0" style="stop-color:#213773"/>
				<stop  offset="1" style="stop-color:#00AEE5"/>
			</linearGradient>
			<path id="XMLID_927_" class="st27" d="M-5.2,120.8C17.7,58.1,71.6,26.6,155,27.1c102.8,0.7,226.1,48.4,299.7,76.9
				c5.1,2,10,3.9,14.5,5.6c17.9,6.9,39.8,17,63.1,27.7c61.1,28.2,137.2,63.3,205.5,71.3c68.6,8,116.1-12.4,141.2-60.7l2,1
				c-25.6,49.2-73.9,70-143.5,61.9c-68.6-8-144.9-43.2-206.2-71.5c-23.2-10.7-45.1-20.8-62.9-27.7c-4.6-1.8-9.4-3.6-14.5-5.6
				C380.4,77.7,257.3,30.1,155,29.5C72.7,29,19.6,60-3,121.7L-5.2,120.8z"/>
		</g>
		<g id="XMLID_924_">
			
				<linearGradient id="XMLID_30_" gradientUnits="userSpaceOnUse" x1="-88.651" y1="131.6746" x2="919.9374" y2="131.6746" gradientTransform="matrix(1 0 0 -1 0 252)">
				<stop  offset="0" style="stop-color:#213773"/>
				<stop  offset="1" style="stop-color:#00AEE5"/>
			</linearGradient>
			<path id="XMLID_925_" class="st28" d="M-3.6,117.1c11.8-35.5,33.7-61,65.1-75.9C159.8-5.4,329.4,59.3,430.7,98
				c12.9,4.9,25.1,9.6,35.4,13.3c19.3,7,42.5,17.5,69.4,29.7c56.8,25.7,127.5,57.8,191,68.5c74.1,12.6,123.7-5.8,151.7-56.3l2,1.1
				c-28.5,51.5-78.9,70.3-154,57.5c-63.8-10.8-134.7-42.9-191.6-68.7c-26.9-12.2-50-22.7-69.3-29.6c-10.4-3.8-22.6-8.4-35.5-13.3
				c-101-38.5-270-103-367.4-56.8C31.6,58,10,83.1-1.6,118L-3.6,117.1z"/>
		</g>
		<g id="XMLID_922_">
			
				<linearGradient id="XMLID_31_" gradientUnits="userSpaceOnUse" x1="-88.651" y1="130.3876" x2="919.9374" y2="130.3876" gradientTransform="matrix(1 0 0 -1 0 252)">
				<stop  offset="0" style="stop-color:#213773"/>
				<stop  offset="1" style="stop-color:#00AEE5"/>
			</linearGradient>
			<path id="XMLID_923_" class="st29" d="M-6.4,119.1C5.2,86.6,26.3,62.9,56.2,48.7c97.1-46.1,267,14.6,368.5,50.9
				c13.6,4.8,26.4,9.4,37.3,13.1c20,6.8,45,17.4,71.4,28.7c57.2,24.4,128.5,54.9,192.4,64.4c74.5,11.2,124.7-7.7,153.6-57.6l2,1.1
				c-29.4,50.8-80.4,70-155.9,58.7c-64.2-9.6-135.6-40.1-192.9-64.6c-26.4-11.3-51.4-21.9-71.3-28.6c-10.9-3.7-23.7-8.3-37.3-13.1
				C322.8,65.5,153.5,5,57.2,50.7c-29.4,14-50.1,37.2-61.5,69.2L-6.4,119.1z"/>
		</g>
		<g id="XMLID_920_">
			
				<linearGradient id="XMLID_32_" gradientUnits="userSpaceOnUse" x1="-88.651" y1="128.9321" x2="919.9374" y2="128.9321" gradientTransform="matrix(1 0 0 -1 0 252)">
				<stop  offset="0" style="stop-color:#213773"/>
				<stop  offset="1" style="stop-color:#00AEE5"/>
			</linearGradient>
			<path id="XMLID_921_" class="st30" d="M-9.2,121.2C45.9-22.9,288.6,57.9,419,101.3c14.1,4.7,27.5,9.2,38.8,12.7
				c20.6,6.5,46.3,16.8,73.4,27.7c118.9,47.7,281.7,113.1,349.2,1.5l1.9,1.2c-68.4,113.2-232.3,47.4-351.9-0.6
				c-27.1-10.9-52.7-21.2-73.3-27.6c-11.3-3.5-24.6-8-38.8-12.7C288.6,60.3,47.3-20.1-7.1,122L-9.2,121.2z"/>
		</g>
		<g id="XMLID_918_">
			
				<linearGradient id="XMLID_33_" gradientUnits="userSpaceOnUse" x1="-88.651" y1="127.5183" x2="919.9374" y2="127.5183" gradientTransform="matrix(1 0 0 -1 0 252)">
				<stop  offset="0" style="stop-color:#213773"/>
				<stop  offset="1" style="stop-color:#00AEE5"/>
			</linearGradient>
			<path id="XMLID_919_" class="st31" d="M-12.1,123.3c55.5-134.4,296.3-60,425.6-20c15.2,4.7,28.4,8.8,40,12.1
				c21.3,6.2,47.6,16.1,75.4,26.5c119.5,45.1,283,106.6,352.4-3.6l1.9,1.2c-70.4,111.8-235,49.9-355.1,4.7
				c-27.8-10.5-54-20.3-75.3-26.5c-11.6-3.4-24.8-7.4-40-12.1C284.2,65.7,44.8-8.4-10,124.2L-12.1,123.3z"/>
		</g>
		<g id="XMLID_916_">
			
				<linearGradient id="XMLID_34_" gradientUnits="userSpaceOnUse" x1="-88.651" y1="126.1734" x2="919.9374" y2="126.1734" gradientTransform="matrix(1 0 0 -1 0 252)">
				<stop  offset="0" style="stop-color:#213773"/>
				<stop  offset="1" style="stop-color:#00AEE5"/>
			</linearGradient>
			<path id="XMLID_917_" class="st32" d="M-14.9,125.4C41,0.5,280,68.8,408.4,105.4c15.6,4.5,29.1,8.3,40.9,11.4
				c22,5.9,48.9,15.3,77.5,25.4c119.9,42.2,284.1,99.9,355.5-8.9l1.9,1.2c-72.5,110.4-237.6,52.3-358.2,9.8
				c-28.5-10-55.4-19.5-77.3-25.3c-11.8-3.1-25.3-7-40.9-11.5C280.1,71.1,42.3,3.2-12.8,126.3L-14.9,125.4z"/>
		</g>
		<g id="XMLID_914_">
			
				<linearGradient id="XMLID_35_" gradientUnits="userSpaceOnUse" x1="-88.651" y1="124.8007" x2="919.9374" y2="124.8007" gradientTransform="matrix(1 0 0 -1 0 252)">
				<stop  offset="0" style="stop-color:#213773"/>
				<stop  offset="1" style="stop-color:#00AEE5"/>
			</linearGradient>
			<path id="XMLID_915_" class="st33" d="M-17.7,127.4C38.6,12,276,74.2,403.6,107.7c15.8,4.2,29.5,7.7,41.5,10.6
				c22.7,5.5,50.3,14.6,79.5,24.1c120.4,39.4,285.2,93.5,358.7-14.1l1.9,1.3c-74.5,109-240.3,54.6-361.3,15
				c-29.2-9.6-56.7-18.6-79.3-24.1c-12-2.9-25.7-6.5-41.5-10.7c-127-33.2-363.2-95.2-418.8,18.6L-17.7,127.4z"/>
		</g>
		<g id="XMLID_912_">
			
				<linearGradient id="XMLID_36_" gradientUnits="userSpaceOnUse" x1="-88.651" y1="123.4063" x2="919.9374" y2="123.4063" gradientTransform="matrix(1 0 0 -1 0 252)">
				<stop  offset="0" style="stop-color:#213773"/>
				<stop  offset="1" style="stop-color:#00AEE5"/>
			</linearGradient>
			<path id="XMLID_913_" class="st34" d="M-20.5,129.5C36.3,23.3,272.3,79.7,399.1,110c16,3.8,29.7,7.1,41.7,9.8
				c23.4,5.2,51.7,13.8,81.6,22.8c120.9,36.7,286.4,87.1,361.9-19.2l1.8,1.3c-76.5,107.6-242.9,57-364.4,20
				c-29.8-9.1-58.1-17.6-81.4-22.8c-12-2.7-25.8-5.9-41.8-9.8c-126.1-30-361-86.1-417,18.5L-20.5,129.5z"/>
		</g>
		<g id="XMLID_910_">
			
				<linearGradient id="XMLID_37_" gradientUnits="userSpaceOnUse" x1="-88.651" y1="121.8845" x2="919.9374" y2="121.8845" gradientTransform="matrix(1 0 0 -1 0 252)">
				<stop  offset="0" style="stop-color:#213773"/>
				<stop  offset="1" style="stop-color:#00AEE5"/>
			</linearGradient>
			<path id="XMLID_911_" class="st35" d="M-23.3,131.6c57.4-97,292.2-46.4,418.3-19.2c15.9,3.4,29.6,6.4,41.6,8.8
				c24.1,4.8,53,12.9,83.6,21.5c62.9,17.6,134.1,37.6,200.2,40.3c76.5,3.1,130.4-18,164.8-64.5l1.8,1.3
				c-34.9,47.2-89.4,68.6-166.7,65.4c-66.4-2.7-137.8-22.7-200.7-40.4c-30.5-8.6-59.4-16.7-83.5-21.5c-12-2.4-25.7-5.3-41.6-8.8
				c-125.6-27-359.3-77.4-415.9,18.2L-23.3,131.6z"/>
		</g>
		<g id="XMLID_908_">
			
				<linearGradient id="XMLID_38_" gradientUnits="userSpaceOnUse" x1="-88.651" y1="120.4718" x2="919.9374" y2="120.4718" gradientTransform="matrix(1 0 0 -1 0 252)">
				<stop  offset="0" style="stop-color:#213773"/>
				<stop  offset="1" style="stop-color:#00AEE5"/>
			</linearGradient>
			<path id="XMLID_909_" class="st36" d="M-26.1,133.6c58-87.9,291.9-42.9,417.5-18.8c15.7,3,29.2,5.6,41,7.7
				c24.9,4.4,54.5,12,85.8,20.1c63.3,16.3,135,34.8,201.5,36.4c76.9,1.8,131.4-19.6,166.6-65.6l1.8,1.4
				c-35.7,46.6-90.9,68.3-168.5,66.5c-66.8-1.6-138.6-20.1-202-36.5c-31.3-8.1-60.8-15.7-85.6-20.1c-11.8-2.1-25.3-4.7-41-7.7
				C265.8,93,32.9,48.2-24.2,134.9L-26.1,133.6z"/>
		</g>
		<g id="XMLID_906_">
			
				<linearGradient id="XMLID_39_" gradientUnits="userSpaceOnUse" x1="-88.651" y1="118.9594" x2="919.9374" y2="118.9594" gradientTransform="matrix(1 0 0 -1 0 252)">
				<stop  offset="0" style="stop-color:#213773"/>
				<stop  offset="1" style="stop-color:#00AEE5"/>
			</linearGradient>
			<path id="XMLID_907_" class="st37" d="M-28.9,135.7c58.7-79,292-39.5,417.3-18.3c15.2,2.6,28.3,4.8,39.7,6.6
				c25.6,4,55.9,11.1,87.9,18.7c129.1,30.4,289.7,68.2,371.2-34.1l1.8,1.4c-36.6,46-92.3,68-170.2,67.5
				C651.7,177,579.4,160,515.6,145c-32-7.5-62.2-14.6-87.7-18.6c-11.5-1.8-24.6-4-39.8-6.6C263.1,98.5,30.7,59.2-27.1,137
				L-28.9,135.7z"/>
		</g>
		<g id="XMLID_904_">
			
				<linearGradient id="XMLID_40_" gradientUnits="userSpaceOnUse" x1="-88.651" y1="117.5082" x2="919.9374" y2="117.5082" gradientTransform="matrix(1 0 0 -1 0 252)">
				<stop  offset="0" style="stop-color:#213773"/>
				<stop  offset="1" style="stop-color:#00AEE5"/>
			</linearGradient>
			<path id="XMLID_905_" class="st38" d="M-31.7,137.7c59.5-70.1,292.6-36,417.9-17.7c14.4,2.1,26.8,3.9,37.7,5.4
				c26.4,3.6,57.3,10.2,90.1,17.2c129.5,27.6,290.7,62,374.2-39l1.7,1.4c-84.4,102-246.3,67.5-376.4,39.8
				c-32.7-7-63.6-13.6-89.9-17.1c-10.9-1.5-23.4-3.3-37.7-5.4C261,104,28.7,70.1-30,139.2L-31.7,137.7z"/>
		</g>
		<g id="XMLID_902_">
			
				<linearGradient id="XMLID_41_" gradientUnits="userSpaceOnUse" x1="-88.651" y1="117.7795" x2="919.9374" y2="117.7795" gradientTransform="matrix(1 0 0 -1 0 252)">
				<stop  offset="0" style="stop-color:#213773"/>
				<stop  offset="1" style="stop-color:#00AEE5"/>
			</linearGradient>
			<path id="XMLID_903_" class="st39" d="M-34.5,139.8c60.5-61.3,294.1-32.6,419.6-17.1c12.8,1.6,24.4,3,34.5,4.2
				c27.2,3.1,58.9,9.2,92.3,15.6c130,24.9,291.7,55.8,377.2-43.8l1.7,1.5c-86.3,100.6-248.8,69.6-379.3,44.6
				c-33.5-6.4-65.1-12.4-92.2-15.6c-10.1-1.2-21.7-2.6-34.5-4.2c-125.1-15.4-358-44.1-417.7,16.4L-34.5,139.8z"/>
		</g>
		<g id="XMLID_900_">
			
				<linearGradient id="XMLID_42_" gradientUnits="userSpaceOnUse" x1="-88.651" y1="122.3389" x2="919.9374" y2="122.3389" gradientTransform="matrix(1 0 0 -1 0 252)">
				<stop  offset="0" style="stop-color:#213773"/>
				<stop  offset="1" style="stop-color:#00AEE5"/>
			</linearGradient>
			<path id="XMLID_901_" class="st40" d="M-37.3,141.8c61.8-52.7,296.9-29.1,423.2-16.5c10.8,1.1,20.7,2.1,29.4,2.9
				c28,2.7,60.4,8.2,94.7,14c130.4,22.2,292.7,49.7,380.1-48.6l1.7,1.5c-88.3,99.3-251.2,71.6-382.2,49.3
				c-34.2-5.8-66.6-11.3-94.5-14c-8.7-0.8-18.6-1.8-29.4-2.9c-116.9-11.6-360.4-36-421.5,16L-37.3,141.8z"/>
		</g>
		<g id="XMLID_898_">
			
				<linearGradient id="XMLID_43_" gradientUnits="userSpaceOnUse" x1="-88.651" y1="126.7489" x2="919.9374" y2="126.7489" gradientTransform="matrix(1 0 0 -1 0 252)">
				<stop  offset="0" style="stop-color:#213773"/>
				<stop  offset="1" style="stop-color:#00AEE5"/>
			</linearGradient>
			<path id="XMLID_899_" class="st41" d="M-40,143.8c63.8-44.3,311.4-25,430.3-15.8c7.5,0.6,14.5,1.1,20.9,1.6
				c28.9,2.2,62,7.1,97.1,12.3c130.8,19.5,293.6,43.7,382.9-53.3l1.7,1.5c-90.2,97.9-253.6,73.6-384.9,54
				c-35-5.2-68.1-10.1-96.9-12.3c-6.4-0.5-13.3-1-20.9-1.6c-118.8-9.1-365.7-28.3-428.9,15.5L-40,143.8z"/>
		</g>
		<g id="XMLID_896_">
			
				<linearGradient id="XMLID_44_" gradientUnits="userSpaceOnUse" x1="-88.651" y1="130.8628" x2="919.9374" y2="130.8628" gradientTransform="matrix(1 0 0 -1 0 252)">
				<stop  offset="0" style="stop-color:#213773"/>
				<stop  offset="1" style="stop-color:#00AEE5"/>
			</linearGradient>
			<path id="XMLID_897_" class="st42" d="M-42.7,145.9c67.5-36.3,332.1-21.4,445.1-15l4.6,0.3c29.8,1.7,63.6,6,99.5,10.6
				c131.2,16.8,294.4,37.7,385.6-58l1.6,1.6c-92,96.5-255.9,75.5-387.6,58.6c-35.8-4.6-69.7-8.9-99.4-10.6l-4.6-0.2
				C299,127.4,25.1,111.9-41.8,148L-42.7,145.9z"/>
		</g>
		<g id="XMLID_894_">
			
				<linearGradient id="XMLID_45_" gradientUnits="userSpaceOnUse" x1="-88.651" y1="135.2387" x2="919.9374" y2="135.2387" gradientTransform="matrix(1 0 0 -1 0 252)">
				<stop  offset="0" style="stop-color:#213773"/>
				<stop  offset="1" style="stop-color:#00AEE5"/>
			</linearGradient>
			<path id="XMLID_895_" class="st43" d="M-45.4,147.9c68.4-26.3,336.2-19.5,448.1-15.4c30.7,1.1,65.4,4.9,102.1,8.8
				c131.5,14.1,295.1,31.7,388.3-62.6l1.6,1.6c-93.9,95.1-258.1,77.4-390.1,63.2c-36.7-3.9-71.4-7.7-102-8.8
				c-111.8-4-379.2-10.8-447.2,15.3L-45.4,147.9z"/>
		</g>
		<g id="XMLID_892_">
			
				<linearGradient id="XMLID_46_" gradientUnits="userSpaceOnUse" x1="-88.651" y1="138.9" x2="919.9374" y2="138.9" gradientTransform="matrix(1 0 0 -1 0 252)">
				<stop  offset="0" style="stop-color:#213773"/>
				<stop  offset="1" style="stop-color:#00AEE5"/>
			</linearGradient>
			<path id="XMLID_893_" class="st44" d="M-48.1,150c71.7-16.9,356.5-17.7,446.6-16c31.6,0.6,67.2,3.7,104.9,7
				c131.8,11.5,295.8,25.8,390.8-67.1l1.6,1.6c-42.6,41.7-102,65.7-181.6,73.4c-69.2,6.7-144.5,0.1-211-5.7
				c-37.6-3.3-73.2-6.4-104.7-6.9c-90-1.6-374.5-0.8-446,16L-48.1,150z"/>
		</g>
		<g id="XMLID_890_">
			
				<linearGradient id="XMLID_47_" gradientUnits="userSpaceOnUse" x1="-88.651" y1="140.4" x2="919.9374" y2="140.4" gradientTransform="matrix(1 0 0 -1 0 252)">
				<stop  offset="0" style="stop-color:#213773"/>
				<stop  offset="1" style="stop-color:#00AEE5"/>
			</linearGradient>
			<path id="XMLID_891_" class="st45" d="M-50.8,152.1c72.4-6.3,346.9-16.6,445-16.7c32.6,0,69.1,2.4,107.7,5
				c138.9,9.4,296.4,20,393.1-71.5l1.6,1.6c-43.4,41.1-103.3,65.3-183,74.1c-69.4,7.6-145.1,2.5-211.8-2c-38.6-2.6-75-5.1-107.6-5
				c-98.1,0.1-372.5,10.4-444.8,16.7L-50.8,152.1z"/>
		</g>
		<g id="XMLID_888_">
			
				<linearGradient id="XMLID_48_" gradientUnits="userSpaceOnUse" x1="-88.651" y1="141.5084" x2="919.9374" y2="141.5084" gradientTransform="matrix(1 0 0 -1 0 252)">
				<stop  offset="0" style="stop-color:#213773"/>
				<stop  offset="1" style="stop-color:#00AEE5"/>
			</linearGradient>
			<path id="XMLID_889_" class="st46" d="M-53.6,156.4l0.1-2.3c42.6,2.5,155.9-3.5,265.6-9.3c70.7-3.7,137.5-7.3,177.9-8.1
				c33.7-0.7,71.1,1.1,110.7,3C639.9,146.5,797.6,154,896.1,64l1.5,1.7c-99.2,90.7-257.4,83.2-397,76.5c-39.6-1.9-77-3.7-110.6-3
				c-40.3,0.8-107.1,4.3-177.8,8C102.6,152.9-10.9,158.9-53.6,156.4z"/>
		</g>
		<g id="XMLID_886_">
			
				<linearGradient id="XMLID_49_" gradientUnits="userSpaceOnUse" x1="-88.651" y1="141.2551" x2="919.9374" y2="141.2551" gradientTransform="matrix(1 0 0 -1 0 252)">
				<stop  offset="0" style="stop-color:#213773"/>
				<stop  offset="1" style="stop-color:#00AEE5"/>
			</linearGradient>
			<path id="XMLID_887_" class="st47" d="M-56.6,158.5l0.5-2.2c49.6,10,196.6-0.9,314.6-9.7c52-3.9,96.8-7.2,127.3-8.3
				c34.8-1.3,73.2-0.2,113.9,0.9c139.3,4,297.2,8.5,397.4-80.2l1.5,1.7c-100.8,89.2-259.2,84.7-398.9,80.7
				c-40.7-1.2-79.1-2.2-113.8-0.9c-30.4,1.2-75.3,4.5-127.2,8.3C140.5,157.6-6.6,168.5-56.6,158.5z"/>
		</g>
		<g id="XMLID_884_">
			
				<linearGradient id="XMLID_50_" gradientUnits="userSpaceOnUse" x1="-88.651" y1="140.5914" x2="919.9374" y2="140.5914" gradientTransform="matrix(1 0 0 -1 0 252)">
				<stop  offset="0" style="stop-color:#213773"/>
				<stop  offset="1" style="stop-color:#00AEE5"/>
			</linearGradient>
			<path id="XMLID_885_" class="st48" d="M-59.5,160.6l0.7-2.1c52.6,17.9,214,2.2,331.9-9.3c43.9-4.3,81.8-8,108.5-9.5
				c36-2,75.5-1.7,117.3-1.3c139.4,1.3,297.4,2.8,399.2-84.4l1.5,1.7c-102.4,87.7-260.9,86.2-400.7,84.9
				c-41.8-0.4-81.3-0.8-117.2,1.3c-26.6,1.5-64.5,5.2-108.4,9.5C155.2,162.9-6.5,178.7-59.5,160.6z"/>
		</g>
		<g id="XMLID_882_">
			
				<linearGradient id="XMLID_51_" gradientUnits="userSpaceOnUse" x1="-88.651" y1="139.6776" x2="919.9374" y2="139.6776" gradientTransform="matrix(1 0 0 -1 0 252)">
				<stop  offset="0" style="stop-color:#213773"/>
				<stop  offset="1" style="stop-color:#00AEE5"/>
			</linearGradient>
			<path id="XMLID_883_" class="st49" d="M-62.5,162.7l1-2c54.3,26,219.6,6,340.3-8.7c39.7-4.8,74-9,98.5-10.8
				c37.2-2.8,77.9-3.2,121-3.6c139.4-1.3,297.4-2.8,400.7-88.4l1.5,1.7c-104,86.2-262.4,87.6-402.1,89c-43.1,0.4-83.7,0.8-120.8,3.6
				c-24.5,1.8-58.7,6-98.4,10.8C158.1,168.9-7.6,188.9-62.5,162.7z"/>
		</g>
		<g id="XMLID_880_">
			
				<linearGradient id="XMLID_52_" gradientUnits="userSpaceOnUse" x1="-88.651" y1="138.8012" x2="919.9374" y2="138.8012" gradientTransform="matrix(1 0 0 -1 0 252)">
				<stop  offset="0" style="stop-color:#213773"/>
				<stop  offset="1" style="stop-color:#00AEE5"/>
			</linearGradient>
			<path id="XMLID_881_" class="st50" d="M-65.4,164.7l1.2-1.9c55.6,34.2,222.8,9.8,344.9-8c37.1-5.4,69.2-10.1,92.4-12.2
				c38.5-3.6,80.5-4.8,124.9-6c139.3-3.9,297.2-8.3,402-92.4l1.4,1.8C796,130.6,637.7,135,498,138.9c-44.4,1.2-86.3,2.4-124.7,6
				c-23.1,2.2-55.2,6.8-92.3,12.2C158.6,174.9-9.1,199.3-65.4,164.7z"/>
		</g>
		<g id="XMLID_878_">
			
				<linearGradient id="XMLID_53_" gradientUnits="userSpaceOnUse" x1="-88.651" y1="137.9271" x2="919.9374" y2="137.9271" gradientTransform="matrix(1 0 0 -1 0 252)">
				<stop  offset="0" style="stop-color:#213773"/>
				<stop  offset="1" style="stop-color:#00AEE5"/>
			</linearGradient>
			<path id="XMLID_879_" class="st51" d="M-68.4,166.7l1.4-1.8c56.6,42.3,224.8,13.7,347.6-7.2c35.4-6,66-11.2,88.3-13.7
				c40-4.5,83.3-6.5,129.1-8.6c139.1-6.4,296.8-13.7,403-96.2l1.4,1.8c-106.8,83-264.8,90.2-404.3,96.7
				c-45.8,2.1-89.1,4.1-128.9,8.6C347,148.8,316.4,154,281,160C157.8,180.9-11,209.6-68.4,166.7z"/>
		</g>
		<g id="XMLID_876_">
			
				<linearGradient id="XMLID_54_" gradientUnits="userSpaceOnUse" x1="-88.651" y1="136.999" x2="919.9374" y2="136.999" gradientTransform="matrix(1 0 0 -1 0 252)">
				<stop  offset="0" style="stop-color:#213773"/>
				<stop  offset="1" style="stop-color:#00AEE5"/>
			</linearGradient>
			<path id="XMLID_877_" class="st52" d="M-71.3,168.8l1.5-1.7c57.5,50.5,233,16.2,349.1-6.5c34.2-6.7,63.7-12.4,85.3-15.2
				c41.5-5.4,86.2-8.2,133.6-11.3c138.8-8.9,296.2-19,403.7-99.9l1.4,1.8c-108,81.3-265.8,91.4-404.9,100.3
				c-47.4,3-92.1,5.9-133.5,11.3c-21.6,2.8-51,8.5-85.1,15.2C156.2,187-13,220-71.3,168.8z"/>
		</g>
		<g id="XMLID_874_">
			
				<linearGradient id="XMLID_55_" gradientUnits="userSpaceOnUse" x1="-88.651" y1="136.2992" x2="919.9374" y2="136.2992" gradientTransform="matrix(1 0 0 -1 0 252)">
				<stop  offset="0" style="stop-color:#213773"/>
				<stop  offset="1" style="stop-color:#00AEE5"/>
			</linearGradient>
			<path id="XMLID_875_" class="st53" d="M-74.2,170.8l1.6-1.6c58.2,58.7,233.8,19.9,349.9-5.7c33.2-7.3,61.9-13.6,83-16.8
				c43.1-6.4,89.5-10.2,138.5-14.2c138.5-11.3,295.4-24.1,404-103.3l1.3,1.8c-109.2,79.6-266.4,92.4-405.2,103.8
				c-49,4-95.4,7.8-138.4,14.1c-21,3.1-49.7,9.4-82.9,16.7C161.2,191.5-15.1,230.4-74.2,170.8z"/>
		</g>
		<g id="XMLID_872_">
			
				<linearGradient id="XMLID_56_" gradientUnits="userSpaceOnUse" x1="-88.651" y1="135.3028" x2="919.9374" y2="135.3028" gradientTransform="matrix(1 0 0 -1 0 252)">
				<stop  offset="0" style="stop-color:#213773"/>
				<stop  offset="1" style="stop-color:#00AEE5"/>
			</linearGradient>
			<path id="XMLID_873_" class="st54" d="M-77,172.9l1.7-1.5c58.9,66.8,234.2,23.7,350.3-4.8c32.5-8,60.5-14.9,81.2-18.3
				c44.9-7.4,93-12.2,143.9-17.2C644.7,116.7,794.3,101.8,904,24.4l1.3,1.9c-110.2,77.8-260.1,92.7-405,107
				c-50.9,5-98.9,9.8-143.7,17.2c-20.6,3.4-48.6,10.3-81.1,18.3C158.9,197.4-17.2,240.7-77,172.9z"/>
		</g>
		<g id="XMLID_870_">
			
				<linearGradient id="XMLID_57_" gradientUnits="userSpaceOnUse" x1="-88.651" y1="134.3377" x2="919.9374" y2="134.3377" gradientTransform="matrix(1 0 0 -1 0 252)">
				<stop  offset="0" style="stop-color:#213773"/>
				<stop  offset="1" style="stop-color:#00AEE5"/>
			</linearGradient>
			<path id="XMLID_871_" class="st55" d="M-79.9,175l1.8-1.4c59.5,74.9,234.5,27.4,350.3-4c31.9-8.7,59.4-16.1,79.8-19.9
				c46.8-8.6,96.8-14.4,149.7-20.5c143.9-16.7,292.7-34,403.3-109.7l1.3,1.9c-111.1,76-260.2,93.3-404.4,110.1
				c-52.9,6.1-102.8,11.9-149.5,20.5c-20.3,3.7-47.8,11.2-79.6,19.8C156.4,203.3-19.5,251.1-79.9,175z"/>
		</g>
		<g id="XMLID_868_">
			
				<linearGradient id="XMLID_58_" gradientUnits="userSpaceOnUse" x1="-88.651" y1="133.4919" x2="919.9374" y2="133.4919" gradientTransform="matrix(1 0 0 -1 0 252)">
				<stop  offset="0" style="stop-color:#213773"/>
				<stop  offset="1" style="stop-color:#00AEE5"/>
			</linearGradient>
			<path id="XMLID_869_" class="st56" d="M-82.8,177l1.8-1.3c60.1,83.1,234.6,31.2,350-3.1c31.4-9.3,58.5-17.4,78.7-21.5
				c48.9-9.8,100.9-16.8,155.9-24.1c143-19,290.9-38.7,402.3-112.6l1.3,1.9C795.4,90.5,647.3,110.2,504,129.2
				c-55,7.3-107,14.2-155.8,24.1c-20,4-47.1,12.1-78.5,21.4C153.7,209.3-21.7,261.4-82.8,177z"/>
		</g>
	</g>
</g>
</svg>
