<?xml version="1.0" encoding="utf-8"?>
<!-- Generator: Adobe Illustrator 22.0.0, SVG Export Plug-In . SVG Version: 6.00 Build 0)  -->
<svg version="1.1" id="Layer_1" xmlns="http://www.w3.org/2000/svg" xmlns:xlink="http://www.w3.org/1999/xlink" x="0px" y="0px"
	 viewBox="0 0 781.9 252" style="enable-background:new 0 0 781.9 252;" xml:space="preserve">
<style type="text/css">
	.st0{fill:url(#XMLID_2_);stroke:#123962;stroke-miterlimit:10;}
	.st1{fill:url(#XMLID_3_);stroke:#123962;stroke-miterlimit:10;}
	.st2{fill:url(#XMLID_4_);stroke:#123962;stroke-miterlimit:10;}
	.st3{fill:url(#XMLID_5_);stroke:#123962;stroke-miterlimit:10;}
	.st4{fill:url(#XMLID_6_);stroke:#123962;stroke-miterlimit:10;}
	.st5{fill:url(#XMLID_7_);stroke:#123962;stroke-miterlimit:10;}
	.st6{fill:url(#XMLID_8_);stroke:#123962;stroke-miterlimit:10;}
	.st7{fill:url(#XMLID_9_);stroke:#123962;stroke-miterlimit:10;}
	.st8{fill:url(#XMLID_10_);stroke:#123962;stroke-miterlimit:10;}
	.st9{fill:url(#XMLID_11_);stroke:#123962;stroke-miterlimit:10;}
	.st10{fill:url(#XMLID_12_);stroke:#123962;stroke-miterlimit:10;}
	.st11{fill:url(#XMLID_13_);stroke:#123962;stroke-miterlimit:10;}
	.st12{fill:url(#XMLID_14_);stroke:#123962;stroke-miterlimit:10;}
	.st13{fill:url(#XMLID_15_);stroke:#123962;stroke-miterlimit:10;}
	.st14{fill:url(#XMLID_16_);stroke:#123962;stroke-miterlimit:10;}
	.st15{fill:url(#XMLID_17_);stroke:#123962;stroke-miterlimit:10;}
	.st16{fill:url(#XMLID_18_);stroke:#123962;stroke-miterlimit:10;}
	.st17{fill:url(#XMLID_19_);stroke:#123962;stroke-miterlimit:10;}
	.st18{fill:url(#XMLID_20_);stroke:#123962;stroke-miterlimit:10;}
	.st19{fill:url(#XMLID_21_);stroke:#123962;stroke-miterlimit:10;}
	.st20{fill:url(#XMLID_22_);stroke:#123962;stroke-miterlimit:10;}
	.st21{fill:url(#XMLID_23_);stroke:#123962;stroke-miterlimit:10;}
	.st22{fill:url(#XMLID_24_);stroke:#123962;stroke-miterlimit:10;}
	.st23{fill:url(#XMLID_25_);stroke:#123962;stroke-miterlimit:10;}
	.st24{fill:url(#XMLID_26_);stroke:#123962;stroke-miterlimit:10;}
	.st25{fill:url(#XMLID_27_);stroke:#123962;stroke-miterlimit:10;}
	.st26{fill:url(#XMLID_28_);stroke:#123962;stroke-miterlimit:10;}
	.st27{fill:url(#XMLID_29_);stroke:#123962;stroke-miterlimit:10;}
	.st28{fill:url(#XMLID_30_);stroke:#123962;stroke-miterlimit:10;}
	.st29{fill:url(#XMLID_31_);stroke:#123962;stroke-miterlimit:10;}
	.st30{fill:url(#XMLID_32_);stroke:#123962;stroke-miterlimit:10;}
	.st31{fill:url(#XMLID_33_);stroke:#123962;stroke-miterlimit:10;}
	.st32{fill:url(#XMLID_34_);stroke:#123962;stroke-miterlimit:10;}
	.st33{fill:url(#XMLID_35_);stroke:#123962;stroke-miterlimit:10;}
	.st34{fill:url(#XMLID_36_);stroke:#123962;stroke-miterlimit:10;}
	.st35{fill:url(#XMLID_37_);stroke:#123962;stroke-miterlimit:10;}
	.st36{fill:url(#XMLID_38_);stroke:#123962;stroke-miterlimit:10;}
	.st37{fill:url(#XMLID_39_);stroke:#123962;stroke-miterlimit:10;}
	.st38{fill:url(#XMLID_40_);stroke:#123962;stroke-miterlimit:10;}
	.st39{fill:url(#XMLID_41_);stroke:#123962;stroke-miterlimit:10;}
	.st40{fill:url(#XMLID_42_);stroke:#123962;stroke-miterlimit:10;}
	.st41{fill:url(#XMLID_43_);stroke:#123962;stroke-miterlimit:10;}
	.st42{fill:url(#XMLID_44_);stroke:#123962;stroke-miterlimit:10;}
	.st43{fill:url(#XMLID_45_);stroke:#123962;stroke-miterlimit:10;}
	.st44{fill:url(#XMLID_46_);stroke:#123962;stroke-miterlimit:10;}
	.st45{fill:url(#XMLID_47_);stroke:#123962;stroke-miterlimit:10;}
	.st46{fill:url(#XMLID_48_);stroke:#123962;stroke-miterlimit:10;}
	.st47{fill:url(#XMLID_49_);stroke:#123962;stroke-miterlimit:10;}
	.st48{fill:url(#XMLID_50_);stroke:#123962;stroke-miterlimit:10;}
	.st49{fill:url(#XMLID_51_);stroke:#123962;stroke-miterlimit:10;}
	.st50{fill:url(#XMLID_52_);stroke:#123962;stroke-miterlimit:10;}
	.st51{fill:url(#XMLID_53_);stroke:#123962;stroke-miterlimit:10;}
	.st52{fill:url(#XMLID_54_);stroke:#123962;stroke-miterlimit:10;}
	.st53{fill:url(#XMLID_55_);stroke:#123962;stroke-miterlimit:10;}
	.st54{fill:url(#XMLID_56_);stroke:#123962;stroke-miterlimit:10;}
	.st55{fill:url(#XMLID_57_);stroke:#123962;stroke-miterlimit:10;}
	.st56{fill:url(#XMLID_58_);stroke:#123962;stroke-miterlimit:10;}
</style>
<g id="XMLID_980_">
	
		<linearGradient id="XMLID_2_" gradientUnits="userSpaceOnUse" x1="-105.5602" y1="136.25" x2="903.0281" y2="136.25" gradientTransform="matrix(1 0 0 -1 0 254)">
		<stop  offset="0" style="stop-color:#213773"/>
		<stop  offset="1" style="stop-color:#00AEE5"/>
	</linearGradient>
	<path id="XMLID_981_" class="st0" d="M-65.2,222.9c45.5-17.3,87.7-49.7,128.5-81.1c26.4-20.3,53.7-41.3,81.2-57.5
		C250.9,21.6,391.3-36.8,533.6,68.7c12.4,9.2,24.9,19.2,37.1,29c68.6,55,139.5,111.9,228.8,56.6c41.5-25.7,100-87.3,80-143l2.1-0.8
		c20.4,56.9-38.8,119.6-80.9,145.7c-90.6,56.2-162.2-1.2-231.4-56.7c-12.1-9.7-24.7-19.8-37-28.9C391-34.2,251.5,23.9,145.7,86.2
		c-27.4,16.1-54.6,37.1-81,57.4c-40.9,31.5-83.3,64-129.2,81.4L-65.2,222.9z"/>
</g>
<g id="XMLID_978_">
	
		<linearGradient id="XMLID_3_" gradientUnits="userSpaceOnUse" x1="-105.5602" y1="137.1681" x2="903.0281" y2="137.1681" gradientTransform="matrix(1 0 0 -1 0 254)">
		<stop  offset="0" style="stop-color:#213773"/>
		<stop  offset="1" style="stop-color:#00AEE5"/>
	</linearGradient>
	<path id="XMLID_979_" class="st1" d="M-63.7,219.1c42.7-17.5,83-48,121.9-77.4c27.9-21.1,56.8-43,86-59.5
		c72.4-41.3,135.9-63.8,194.1-68.7c69.4-5.8,132.3,12.7,192.2,56.7c12.2,8.9,24.6,18.7,36.6,28.2c68.8,54.3,140,110.5,229.3,57.9
		c41.5-24.4,100.5-84,82.3-139.9l2.2-0.7c18.7,57.2-41.2,117.8-83.3,142.6c-90.7,53.4-162.5-3.3-231.9-58
		c-12-9.5-24.4-19.3-36.5-28.1c-109.6-80.7-228-77-383.8,11.9c-29.1,16.5-57.9,38.3-85.8,59.4c-39,29.5-79.4,60.1-122.4,77.7
		L-63.7,219.1z"/>
</g>
<g id="XMLID_976_">
	
		<linearGradient id="XMLID_4_" gradientUnits="userSpaceOnUse" x1="-105.5602" y1="137.9718" x2="903.0281" y2="137.9718" gradientTransform="matrix(1 0 0 -1 0 254)">
		<stop  offset="0" style="stop-color:#213773"/>
		<stop  offset="1" style="stop-color:#00AEE5"/>
	</linearGradient>
	<path id="XMLID_977_" class="st2" d="M-62.1,215.3c39.9-17.6,78.3-46.2,115.4-73.8C82.7,119.6,113.1,96.9,144,80
		c71.8-39.3,135-60.4,193.3-64.6c69-4.8,131.2,13.6,190.3,56.3c11.8,8.5,23.9,17.9,35.6,27c69.3,53.8,140.9,109.5,230.5,59.5
		c41.4-23.1,101-80.8,84.5-136.9l2.2-0.6c16.9,57.4-43.5,116-85.6,139.5c-90.9,50.7-163.1-5.4-233-59.7c-11.7-9.1-23.8-18.5-35.5-27
		C418.8-4.2,297.7-1.5,145.1,82c-30.7,16.8-61.1,39.4-90.4,61.3C17.5,171-21,199.7-61.2,217.4L-62.1,215.3z"/>
</g>
<g id="XMLID_974_">
	
		<linearGradient id="XMLID_5_" gradientUnits="userSpaceOnUse" x1="-105.5602" y1="138.874" x2="903.0281" y2="138.874" gradientTransform="matrix(1 0 0 -1 0 254)">
		<stop  offset="0" style="stop-color:#213773"/>
		<stop  offset="1" style="stop-color:#00AEE5"/>
	</linearGradient>
	<path id="XMLID_975_" class="st3" d="M-60.5,211.5c36.9-17.5,73-44,107.8-69.6c31.2-22.9,63.5-46.7,96.4-64
		C295.9-2.2,416.9-3.7,524.6,73.2c11.5,8.2,23.4,17.3,34.8,26c69.6,53.3,141.7,108.3,231.3,61c41.4-21.9,101.5-77.5,86.8-133.8
		l2.2-0.6c15.1,57.6-45.9,114.2-87.9,136.4c-90.9,48-163.5-7.5-233.7-61.2c-12-9.2-23.3-17.8-34.8-26
		c-107-76.3-227.2-74.7-378.5,4.9c-32.8,17.2-65,40.9-96.1,63.8c-35,25.7-71.1,52.3-108.2,69.9L-60.5,211.5z"/>
</g>
<g id="XMLID_972_">
	
		<linearGradient id="XMLID_6_" gradientUnits="userSpaceOnUse" x1="-105.5602" y1="139.709" x2="903.0281" y2="139.709" gradientTransform="matrix(1 0 0 -1 0 254)">
		<stop  offset="0" style="stop-color:#213773"/>
		<stop  offset="1" style="stop-color:#00AEE5"/>
	</linearGradient>
	<path id="XMLID_973_" class="st4" d="M-58.9,207.7c33.6-17.1,67.1-41.4,99.4-64.9c33.3-24.2,67.7-49.2,103-67
		c70.2-35.5,132.9-54,191.6-56.6c68-3,129,15.2,186.4,55.6c11.2,7.9,22.3,16.3,34.1,25.1c70,52.7,142.4,107.1,232.1,62.4
		c41.3-20.6,102-74.3,89-130.8l2.2-0.5c13.4,58.2-46.6,111.6-90.2,133.3c-90.9,45.3-167.2-12-234.5-62.6
		c-11.7-8.8-22.8-17.2-34-25.1C415.3,2.7,292.4,3.1,144.6,77.8c-35.1,17.8-69.5,42.7-102.7,66.8C9.5,168.1-24,192.5-57.8,209.7
		L-58.9,207.7z"/>
</g>
<g id="XMLID_970_">
	
		<linearGradient id="XMLID_7_" gradientUnits="userSpaceOnUse" x1="-105.5602" y1="140.6477" x2="903.0281" y2="140.6477" gradientTransform="matrix(1 0 0 -1 0 254)">
		<stop  offset="0" style="stop-color:#213773"/>
		<stop  offset="1" style="stop-color:#00AEE5"/>
	</linearGradient>
	<path id="XMLID_971_" class="st5" d="M-57.3,203.9c30.1-16.5,60.5-38.4,89.9-59.6c35.7-25.6,72.6-52.2,110.7-70.6
		c147.3-71.4,270-70.5,375.2,2.6c11,7.6,21.9,15.7,33.4,24.2c67.1,49.6,143.2,105.9,232.9,63.8c42.9-20.1,102.6-70.7,91.3-127.7
		l2.2-0.4c11.5,58.3-49,109.8-92.6,130.2c-90.9,42.6-167.6-14-235.2-64.1c-11.5-8.5-22.4-16.5-33.3-24.2
		C412.8,5.6,290.8,4.8,144.3,75.7C106.4,94.1,69.6,120.6,34,146.2c-29.5,21.2-59.9,43.2-90.1,59.7L-57.3,203.9z"/>
</g>
<g id="XMLID_968_">
	
		<linearGradient id="XMLID_8_" gradientUnits="userSpaceOnUse" x1="-105.5602" y1="141.5773" x2="903.0281" y2="141.5773" gradientTransform="matrix(1 0 0 -1 0 254)">
		<stop  offset="0" style="stop-color:#213773"/>
		<stop  offset="1" style="stop-color:#00AEE5"/>
	</linearGradient>
	<path id="XMLID_969_" class="st6" d="M-55.7,200.2c26.2-15.4,51.9-33.8,79.1-53.3c38.5-27.6,78.2-56.1,119.6-75.3
		c67.6-31.3,131.5-47.7,189.9-48.8c66.2-1.2,127.6,17.4,182.6,55c10.7,7.3,21.4,15.1,32.7,23.3c67.5,49,144,104.6,233.7,65.2
		c42.8-18.8,103-67.5,93.6-124.7l2.2-0.4c9.6,58.4-51.5,108-94.9,127.1c-90.9,40-167.9-16-235.9-65.4c-11.3-8.2-22-16-32.7-23.3
		C410.2,8.4,289,6.4,144,73.6c-41.3,19.1-80.9,47.6-119.3,75.1c-27.2,19.5-52.9,38-79.3,53.4L-55.7,200.2z"/>
</g>
<g id="XMLID_966_">
	
		<linearGradient id="XMLID_9_" gradientUnits="userSpaceOnUse" x1="-105.5602" y1="142.567" x2="903.0281" y2="142.567" gradientTransform="matrix(1 0 0 -1 0 254)">
		<stop  offset="0" style="stop-color:#213773"/>
		<stop  offset="1" style="stop-color:#00AEE5"/>
	</linearGradient>
	<path id="XMLID_967_" class="st7" d="M-54.1,196.4c21.9-13.8,43.6-29.3,66.5-45.8c41.7-30,84.9-61,130.4-81.1
		C285.1,6.6,409.5,9.9,512.5,79.3c10.5,7.1,21,14.6,32.1,22.5c67.9,48.4,144.8,103.3,234.4,66.5c42.7-17.5,103.4-64.4,95.8-121.6
		l2.2-0.3c7.8,58.5-53.9,106.2-97.2,124c-90.7,37.3-168.2-18-236.6-66.8c-11.1-7.9-21.6-15.4-32-22.4C408.9,12.2,285.3,9,143.7,71.5
		c-45.3,20-88.3,50.9-130,80.8c-23,16.5-44.7,32.1-66.7,45.9L-54.1,196.4z"/>
</g>
<g id="XMLID_964_">
	
		<linearGradient id="XMLID_10_" gradientUnits="userSpaceOnUse" x1="-105.5602" y1="143.5594" x2="903.0281" y2="143.5594" gradientTransform="matrix(1 0 0 -1 0 254)">
		<stop  offset="0" style="stop-color:#213773"/>
		<stop  offset="1" style="stop-color:#00AEE5"/>
	</linearGradient>
	<path id="XMLID_965_" class="st8" d="M-52.5,192.6c17-11.4,33.8-23.7,51.7-36.7C44.8,122.8,92,88.5,142.5,67.3
		c66-27.7,129.3-41.5,188.2-40.9c65.2,0.7,125.3,19,178.8,54.4c10.3,6.8,20.6,14,31.5,21.7c68.3,47.8,145.6,102,235.1,67.8
		C818.7,154,879.9,109,874.2,51.7l2.3-0.2c5.9,58.5-56.3,104.4-99.5,120.9c-90.6,34.6-168.5-19.9-237.2-68.1
		c-10.9-7.6-21.2-14.9-31.4-21.6C406.2,15,283.5,10.5,143.4,69.4C93.1,90.5,46,124.7,0.5,157.8c-17.9,13-34.8,25.3-51.8,36.7
		L-52.5,192.6z"/>
</g>
<g id="XMLID_962_">
	
		<linearGradient id="XMLID_11_" gradientUnits="userSpaceOnUse" x1="-105.5602" y1="144.5885" x2="903.0281" y2="144.5885" gradientTransform="matrix(1 0 0 -1 0 254)">
		<stop  offset="0" style="stop-color:#213773"/>
		<stop  offset="1" style="stop-color:#00AEE5"/>
	</linearGradient>
	<path id="XMLID_963_" class="st9" d="M-50.9,188.8c11.1-8,22.1-16.2,33.8-24.8c50.3-37.4,102.4-76,159.4-98.8
		c137.2-54.7,263.1-48.8,364.2,17.2c10.1,6.6,20.2,13.6,31,20.9c68.6,47.2,146.4,100.7,235.7,69c50.9-18,104-61.8,100.3-115.5
		l2.3-0.2c3.7,54.8-50.2,99.5-101.8,117.8c-90.4,32-168.7-21.8-237.8-69.3c-10.8-7.3-20.9-14.3-30.9-20.8
		c-100.4-65.5-225.6-71.4-362.1-17C86.5,89.9,34.5,128.5-15.7,165.8c-11.7,8.7-22.7,16.9-33.8,24.9L-50.9,188.8z"/>
</g>
<g id="XMLID_960_">
	
		<linearGradient id="XMLID_12_" gradientUnits="userSpaceOnUse" x1="-105.5602" y1="145.7471" x2="903.0281" y2="145.7471" gradientTransform="matrix(1 0 0 -1 0 254)">
		<stop  offset="0" style="stop-color:#213773"/>
		<stop  offset="1" style="stop-color:#00AEE5"/>
	</linearGradient>
	<path id="XMLID_961_" class="st10" d="M-49.4,185l11.4-8.8C15.6,134.8,76.4,87.8,142.1,63C206.3,38.9,269,27.7,328.5,30
		c64.2,2.5,123.1,20.6,175,53.9c9.9,6.3,19.9,13.1,30.5,20.3c69,46.5,147.2,99.3,236.2,70.2c50.8-16.6,104.5-58.8,102.6-112.5
		l2.3-0.1c1.9,54.8-52.6,97.9-104.2,114.7c-90.1,29.4-168.8-23.7-238.2-70.5c-10.6-7.2-20.6-13.9-30.5-20.2
		c-98.9-63.4-226.5-70.7-359.4-20.6C77.5,89.9,16.9,136.7-36.6,178l-11.4,8.8L-49.4,185z"/>
</g>
<g id="XMLID_958_">
	
		<linearGradient id="XMLID_13_" gradientUnits="userSpaceOnUse" x1="-105.5602" y1="145.654" x2="903.0281" y2="145.654" gradientTransform="matrix(1 0 0 -1 0 254)">
		<stop  offset="0" style="stop-color:#213773"/>
		<stop  offset="1" style="stop-color:#00AEE5"/>
	</linearGradient>
	<path id="XMLID_959_" class="st11" d="M-47.8,181.2C6.8,136.2,71,86.1,141.8,60.9C273.6,14,401,22.7,500.5,85.3
		c9.8,6.1,19.7,12.7,30.2,19.7c69.4,45.9,148,97.8,236.7,71.3c50.6-15.1,104.9-55.7,104.9-109.2c0-0.1,0-0.2,0-0.2h2.3
		c0,0.1,0,0.2,0,0.2c0,54.6-55.2,96-106.5,111.3c-89.8,27-172.4-27.6-238.7-71.4c-10.5-6.9-20.4-13.5-30.2-19.6
		c-98.9-62.3-225.5-70.9-356.7-24.2C72.1,88.2,8.1,138.1-46.3,183L-47.8,181.2z"/>
</g>
<g id="XMLID_956_">
	
		<linearGradient id="XMLID_14_" gradientUnits="userSpaceOnUse" x1="-105.5602" y1="144.3889" x2="903.0281" y2="144.3889" gradientTransform="matrix(1 0 0 -1 0 254)">
		<stop  offset="0" style="stop-color:#213773"/>
		<stop  offset="1" style="stop-color:#00AEE5"/>
	</linearGradient>
	<path id="XMLID_957_" class="st12" d="M-46.2,177.5c43.9-38.6,111-93,187.7-118.6C204,38,266.1,29.5,326.3,33.6
		C389.4,37.9,447,55.8,497.4,87c9.7,6,19.5,12.4,30,19.1c66.2,42.9,148.7,96.3,237,72.3C816.6,164.2,870,125.8,871.5,72l2.3,0.1
		c-1.6,55-55.8,94.1-108.8,108.5c-89.3,24.2-172.2-29.5-238.8-72.6c-10.4-6.8-20.3-13.2-29.9-19.1c-97.5-60.3-226.6-70.5-354-27.9
		C66,86.5-1,140.6-44.7,179.1L-46.2,177.5z"/>
</g>
<g id="XMLID_954_">
	
		<linearGradient id="XMLID_15_" gradientUnits="userSpaceOnUse" x1="-105.5602" y1="143.2345" x2="903.0281" y2="143.2345" gradientTransform="matrix(1 0 0 -1 0 254)">
		<stop  offset="0" style="stop-color:#213773"/>
		<stop  offset="1" style="stop-color:#00AEE5"/>
	</linearGradient>
	<path id="XMLID_955_" class="st13" d="M-44.6,173.7c62-58.4,124.5-97.8,185.9-116.9C267.4,17.4,396.2,29,494.4,88.5
		c9.6,5.8,19.4,12.1,29.9,18.7c66.5,42.2,149.3,94.8,237.2,73.3c52.1-12.7,106.1-49.6,109.4-103.3l2.3,0.1
		c-3.4,54.9-58.3,92.5-111.1,105.4c-88.8,21.7-172.1-31.1-238.9-73.6c-10.4-6.6-20.3-12.9-29.8-18.7
		c-97.7-59.2-225.7-70.7-351.3-31.5c-61,19-123.3,58.2-185,116.4L-44.6,173.7z"/>
</g>
<g id="XMLID_952_">
	
		<linearGradient id="XMLID_16_" gradientUnits="userSpaceOnUse" x1="-105.5602" y1="142.0654" x2="903.0281" y2="142.0654" gradientTransform="matrix(1 0 0 -1 0 254)">
		<stop  offset="0" style="stop-color:#213773"/>
		<stop  offset="1" style="stop-color:#00AEE5"/>
	</linearGradient>
	<path id="XMLID_953_" class="st14" d="M-43,169.9C-3.7,130.3,60.1,78.1,141.1,54.6C263.4,19.2,394.3,32.4,491.4,90
		c9.6,5.7,19.5,11.8,30,18.4c66.8,41.5,149.8,93.1,237.2,74.1c48.1-10.5,106.3-43,111.7-100.3l2.3,0.2
		c-5.5,58.5-64.6,91.6-113.4,102.3c-88.4,19.2-171.9-32.7-239-74.5c-10.5-6.5-20.4-12.7-29.9-18.3c-96.6-57.3-226.9-70.4-348.6-35.1
		C61.2,80.2-2.3,132.1-41.4,171.5L-43,169.9z"/>
</g>
<g id="XMLID_950_">
	
		<linearGradient id="XMLID_17_" gradientUnits="userSpaceOnUse" x1="-105.5602" y1="141.1791" x2="903.0281" y2="141.1791" gradientTransform="matrix(1 0 0 -1 0 254)">
		<stop  offset="0" style="stop-color:#213773"/>
		<stop  offset="1" style="stop-color:#00AEE5"/>
	</linearGradient>
	<path id="XMLID_951_" class="st15" d="M-41.4,166.1C10,110.6,74.8,70.2,140.8,52.5c120.1-32.2,250-17.6,347.6,39
		c9.6,5.6,19.7,11.7,30.3,18.1c66.9,40.7,150.3,91.4,237,74.8c48-9.2,106.7-40.1,113.9-97.2l2.2,0.3c-7.4,58.3-67,89.9-115.8,99.2
		c-87.6,16.7-171.3-34.2-238.6-75.1c-10.6-6.4-20.6-12.5-30.2-18.1c-97-56.3-226.3-70.8-345.9-38.7c-65.5,17.5-129.9,57.6-181,112.9
		L-41.4,166.1z"/>
</g>
<g id="XMLID_948_">
	
		<linearGradient id="XMLID_18_" gradientUnits="userSpaceOnUse" x1="-105.5602" y1="140.1027" x2="903.0281" y2="140.1027" gradientTransform="matrix(1 0 0 -1 0 254)">
		<stop  offset="0" style="stop-color:#213773"/>
		<stop  offset="1" style="stop-color:#00AEE5"/>
	</linearGradient>
	<path id="XMLID_949_" class="st16" d="M-39.8,162.3C8.1,107,72.1,67.2,140.6,50.4c116-28.5,248.1-12.2,344.8,42.6
		c9.8,5.5,20,11.6,30.8,18c67.1,39.9,150.6,89.6,236.6,75.4c47.9-7.9,107.1-37.3,116.2-94.2l2.2,0.4c-9.3,58.1-69.4,88.1-118.1,96.1
		C666.4,203,582.5,153.1,515,113c-10.8-6.4-21-12.5-30.7-18c-96.2-54.5-227.7-70.8-343.2-42.4C73.1,69.3,9.4,108.8-38.1,163.8
		L-39.8,162.3z"/>
</g>
<g id="XMLID_946_">
	
		<linearGradient id="XMLID_19_" gradientUnits="userSpaceOnUse" x1="-105.5602" y1="139.2453" x2="903.0281" y2="139.2453" gradientTransform="matrix(1 0 0 -1 0 254)">
		<stop  offset="0" style="stop-color:#213773"/>
		<stop  offset="1" style="stop-color:#00AEE5"/>
	</linearGradient>
	<path id="XMLID_947_" class="st17" d="M-38.2,158.6C6.5,103.2,69.9,64.1,140.4,48.3C253.9,22.9,385,40.6,482.5,94.5
		c10,5.5,20.5,11.6,31.6,18.1c67.2,39.1,150.8,87.7,235.9,75.9c50.1-6.9,107.6-34.5,118.5-91.1l2.2,0.4
		c-11.1,57.8-69.5,85.9-120.4,93c-85.9,11.9-169.9-37-237.4-76.2c-11.1-6.5-21.6-12.5-31.5-18c-97-53.6-227.5-71.3-340.5-46
		C70.9,66.2,7.9,105-36.4,160L-38.2,158.6z"/>
</g>
<g id="XMLID_944_">
	
		<linearGradient id="XMLID_20_" gradientUnits="userSpaceOnUse" x1="-105.5602" y1="138.3867" x2="903.0281" y2="138.3867" gradientTransform="matrix(1 0 0 -1 0 254)">
		<stop  offset="0" style="stop-color:#213773"/>
		<stop  offset="1" style="stop-color:#00AEE5"/>
	</linearGradient>
	<path id="XMLID_945_" class="st18" d="M-36.6,154.8C5.1,99.3,67.9,60.7,140.1,46.2c109.1-22,242.3-2.4,339.3,49.9
		c10.2,5.5,21.1,11.7,32.7,18.2c67.2,38.2,150.7,85.7,234.9,76.2c50-5.6,108-31.7,120.8-88.1l2.2,0.5c-13,57.5-71.9,84.1-122.7,89.8
		c-84.9,9.5-168.9-38.2-236.3-76.5c-11.5-6.5-22.4-12.7-32.6-18.2c-96.5-52-229.1-71.5-337.7-49.6C69,62.8,6.7,101.1-34.7,156.1
		L-36.6,154.8z"/>
</g>
<g id="XMLID_942_">
	
		<linearGradient id="XMLID_21_" gradientUnits="userSpaceOnUse" x1="-105.5602" y1="137.6788" x2="903.0281" y2="137.6788" gradientTransform="matrix(1 0 0 -1 0 254)">
		<stop  offset="0" style="stop-color:#213773"/>
		<stop  offset="1" style="stop-color:#00AEE5"/>
	</linearGradient>
	<path id="XMLID_943_" class="st19" d="M-35,151C4.1,95.2,66.2,57.2,139.9,44c106.2-19,238.3,2,336.5,53.5
		c10.6,5.6,22,11.9,34.1,18.6c67.1,37.2,150.5,83.5,233.6,76.4c64.7-5.6,110.7-37.4,123-85l2.2,0.6c-12.6,48.6-59.3,81.1-125,86.7
		c-83.8,7.2-167.6-39.3-234.9-76.7c-12-6.7-23.4-13-34-18.6c-97.8-51.3-229.3-72.2-335-53.3C67.1,59.4,5.6,97-33.1,152.3L-35,151z"
		/>
</g>
<g id="XMLID_940_">
	
		<linearGradient id="XMLID_22_" gradientUnits="userSpaceOnUse" x1="-105.5602" y1="137.0453" x2="903.0281" y2="137.0453" gradientTransform="matrix(1 0 0 -1 0 254)">
		<stop  offset="0" style="stop-color:#213773"/>
		<stop  offset="1" style="stop-color:#00AEE5"/>
	</linearGradient>
	<path id="XMLID_941_" class="st20" d="M-33.4,147.2c37.1-57,96.9-93.4,173-105.2c125.1-19.5,258,18.6,333.7,57.1
		c11.1,5.6,23.1,12.2,35.9,19.1c66.9,36.2,150.1,81.3,231.9,76.4c31.1-1.9,105.4-13.6,125.3-82l2.2,0.6
		c-20.3,69.8-95.8,81.7-127.3,83.6c-82.5,5-166-40.3-233.1-76.7c-12.7-6.9-24.8-13.4-35.8-19.1c-75.5-38.4-207.8-76.3-332.3-56.9
		C64.5,56,5.2,92-31.5,148.5L-33.4,147.2z"/>
</g>
<g id="XMLID_938_">
	
		<linearGradient id="XMLID_23_" gradientUnits="userSpaceOnUse" x1="-105.5602" y1="136.4585" x2="903.0281" y2="136.4585" gradientTransform="matrix(1 0 0 -1 0 254)">
		<stop  offset="0" style="stop-color:#213773"/>
		<stop  offset="1" style="stop-color:#00AEE5"/>
	</linearGradient>
	<path id="XMLID_939_" class="st21" d="M-31.8,143.5C2.9,86,62.1,50.1,139.4,39.8c120.7-16.1,253.7,22.7,331,60.8
		c11.7,5.8,24.5,12.6,38.1,19.8c66.5,35.2,149.3,79,229.7,76.2c65.6-2.3,112.1-31.1,127.6-78.9l2.2,0.7
		c-15.8,48.9-63.1,78.2-129.7,80.5c-81,2.8-167.6-43-230.9-76.5c-13.6-7.2-26.4-14-38.1-19.7c-77-37.9-209.5-76.5-329.6-60.5
		C63.1,52.3,4.5,87.8-29.9,144.6L-31.8,143.5z"/>
</g>
<g id="XMLID_936_">
	
		<linearGradient id="XMLID_24_" gradientUnits="userSpaceOnUse" x1="-105.5602" y1="135.9106" x2="903.0281" y2="135.9106" gradientTransform="matrix(1 0 0 -1 0 254)">
		<stop  offset="0" style="stop-color:#213773"/>
		<stop  offset="1" style="stop-color:#00AEE5"/>
	</linearGradient>
	<path id="XMLID_937_" class="st22" d="M-30.2,139.7c32.5-58.1,91-93.3,169.4-102C254.9,25,388.3,64.4,467.3,102.1
		c12.4,5.9,26.2,13.1,40.9,20.6c66.1,34.1,148.3,76.6,227.1,75.9c38.5-0.4,106.6-10.7,129.8-75.9l2.1,0.8
		c-23.7,66.5-92.9,77-132,77.4c-79.4,0.7-161.9-41.9-228.2-76.1c-14.6-7.6-28.4-14.7-40.8-20.6c-78.8-37.6-211.7-76.9-327-64.2
		C61.8,48.5,3.9,83.4-28.2,140.8L-30.2,139.7z"/>
</g>
<g id="XMLID_934_">
	
		<linearGradient id="XMLID_25_" gradientUnits="userSpaceOnUse" x1="-105.5602" y1="135.529" x2="903.0281" y2="135.529" gradientTransform="matrix(1 0 0 -1 0 254)">
		<stop  offset="0" style="stop-color:#213773"/>
		<stop  offset="1" style="stop-color:#00AEE5"/>
	</linearGradient>
	<path id="XMLID_935_" class="st23" d="M-28.6,135.9C1.7,77.2,59.7,42.5,138.9,35.6c109.9-9.6,240.2,28.8,325.4,68
		c13.3,6.1,28.2,13.6,44.1,21.7c65.4,33,146.9,74.1,224,75.3c38.5,0.6,106.9-8,132.1-72.9l2.1,0.8c-19.1,49-66.8,75.4-134.3,74.3
		c-77.6-1.3-159.3-42.5-225-75.6c-15.9-8-30.8-15.6-44-21.6c-85-39-214.8-77.4-324.3-67.8C60.7,44.7,3.4,79-26.6,137L-28.6,135.9z"
		/>
</g>
<g id="XMLID_932_">
	
		<linearGradient id="XMLID_26_" gradientUnits="userSpaceOnUse" x1="-105.5602" y1="135.0764" x2="903.0281" y2="135.0764" gradientTransform="matrix(1 0 0 -1 0 254)">
		<stop  offset="0" style="stop-color:#213773"/>
		<stop  offset="1" style="stop-color:#00AEE5"/>
	</linearGradient>
	<path id="XMLID_933_" class="st24" d="M-27,132.2C1.3,72.7,58.6,38.6,138.7,33.5c130-8.3,279.8,52.7,322.6,71.6
		c14.2,6.3,30.6,14.3,47.9,22.9c64.6,31.8,145.1,71.5,220.3,74.6c47,2,108.5-8.6,134.4-69.8l2.1,0.9
		c-26.4,62.4-88.8,73.2-136.6,71.2c-75.6-3.2-156.3-42.9-221.2-74.9c-17.3-8.5-33.7-16.6-47.8-22.9c-42.7-18.9-192-79.7-321.6-71.4
		C58.5,40.9,3.4,73.7-25,133.1L-27,132.2z"/>
</g>
<g id="XMLID_930_">
	
		<linearGradient id="XMLID_27_" gradientUnits="userSpaceOnUse" x1="-105.5602" y1="134.7228" x2="903.0281" y2="134.7228" gradientTransform="matrix(1 0 0 -1 0 254)">
		<stop  offset="0" style="stop-color:#213773"/>
		<stop  offset="1" style="stop-color:#00AEE5"/>
	</linearGradient>
	<path id="XMLID_931_" class="st25" d="M-25.4,128.4c26.7-61,81.8-93.6,163.9-97c112.8-4.6,248.8,45.2,319.8,75.3
		c15.3,6.5,33.3,15.1,52.3,24.3c63.7,30.7,142.9,68.8,216,73.7c47.1,3.1,109-5.9,136.7-66.8l2.1,0.9
		c-28.2,62.1-91.1,71.3-138.9,68.1C653,202,573.6,163.7,509.7,133c-19-9.2-37-17.8-52.2-24.3C386.6,78.7,251,29,138.7,33.6
		C57.5,37,3,69.1-23.3,129.3L-25.4,128.4z"/>
</g>
<g id="XMLID_928_">
	
		<linearGradient id="XMLID_28_" gradientUnits="userSpaceOnUse" x1="-105.5602" y1="134.3316" x2="903.0281" y2="134.3316" gradientTransform="matrix(1 0 0 -1 0 254)">
		<stop  offset="0" style="stop-color:#213773"/>
		<stop  offset="1" style="stop-color:#00AEE5"/>
	</linearGradient>
	<path id="XMLID_929_" class="st26" d="M-23.8,124.6C1,62.8,55.5,30.7,138.2,29.3c116.9-2,262.3,56.8,317.1,78.9
		c16.5,6.7,36.4,16,57.4,25.9c62.5,29.4,140.3,66.1,211,72.6c68.5,6.3,115.3-15.1,139-63.7l2,1c-24.2,49.5-71.7,71.4-141.2,65
		c-71.1-6.5-149.1-43.3-211.8-72.8c-21-9.9-40.8-19.2-57.2-25.9c-54.7-22.1-199.8-80.7-316.2-78.7c-81.7,1.4-135.6,33-160,93.8
		L-23.8,124.6z"/>
</g>
<g id="XMLID_926_">
	
		<linearGradient id="XMLID_29_" gradientUnits="userSpaceOnUse" x1="-105.5602" y1="134.2009" x2="903.0281" y2="134.2009" gradientTransform="matrix(1 0 0 -1 0 254)">
		<stop  offset="0" style="stop-color:#213773"/>
		<stop  offset="1" style="stop-color:#00AEE5"/>
	</linearGradient>
	<path id="XMLID_927_" class="st27" d="M-22.2,120.8C0.7,58.1,54.6,26.6,138,27.1c102.8,0.7,226.1,48.4,299.7,76.9
		c5.1,2,10,3.9,14.5,5.6c17.9,6.9,39.8,17,63.1,27.7c61.1,28.2,137.2,63.3,205.5,71.3c68.6,8,116.1-12.4,141.2-60.7l2,1
		c-25.6,49.2-73.9,70-143.5,61.9c-68.6-8-144.9-43.2-206.2-71.5c-23.2-10.7-45.1-20.8-62.9-27.7c-4.6-1.8-9.4-3.6-14.5-5.6
		C363.4,77.7,240.3,30.1,138,29.5C55.7,29,2.6,60-20,121.7L-22.2,120.8z"/>
</g>
<g id="XMLID_924_">
	
		<linearGradient id="XMLID_30_" gradientUnits="userSpaceOnUse" x1="-105.5602" y1="133.6746" x2="903.0281" y2="133.6746" gradientTransform="matrix(1 0 0 -1 0 254)">
		<stop  offset="0" style="stop-color:#213773"/>
		<stop  offset="1" style="stop-color:#00AEE5"/>
	</linearGradient>
	<path id="XMLID_925_" class="st28" d="M-20.6,117.1c11.8-35.5,33.7-61,65.1-75.9C142.8-5.4,312.4,59.3,413.7,98
		c12.9,4.9,25.1,9.6,35.4,13.3c19.3,7,42.5,17.5,69.4,29.7c56.8,25.7,127.5,57.8,191,68.5c74.1,12.6,123.7-5.8,151.7-56.3l2,1.1
		c-28.5,51.5-78.9,70.3-154,57.5c-63.8-10.8-134.7-42.9-191.6-68.7c-26.9-12.2-50-22.7-69.3-29.6c-10.4-3.8-22.6-8.4-35.5-13.3
		c-101-38.5-270-103-367.4-56.8C14.6,58-7,83.1-18.6,118L-20.6,117.1z"/>
</g>
<g id="XMLID_922_">
	
		<linearGradient id="XMLID_31_" gradientUnits="userSpaceOnUse" x1="-105.5602" y1="132.3876" x2="903.0281" y2="132.3876" gradientTransform="matrix(1 0 0 -1 0 254)">
		<stop  offset="0" style="stop-color:#213773"/>
		<stop  offset="1" style="stop-color:#00AEE5"/>
	</linearGradient>
	<path id="XMLID_923_" class="st29" d="M-23.4,119.1c11.6-32.5,32.7-56.2,62.6-70.4c97.1-46.1,267,14.6,368.5,50.9
		c13.6,4.8,26.4,9.4,37.3,13.1c20,6.8,45,17.4,71.4,28.7c57.2,24.4,128.5,54.9,192.4,64.4c74.5,11.2,124.7-7.7,153.6-57.6l2,1.1
		c-29.4,50.8-80.4,70-155.9,58.7c-64.2-9.6-135.6-40.1-192.9-64.6c-26.4-11.3-51.4-21.9-71.3-28.6c-10.9-3.7-23.7-8.3-37.3-13.1
		C305.8,65.5,136.5,5,40.2,50.7c-29.4,14-50.1,37.2-61.5,69.2L-23.4,119.1z"/>
</g>
<g id="XMLID_920_">
	
		<linearGradient id="XMLID_32_" gradientUnits="userSpaceOnUse" x1="-105.5602" y1="130.9321" x2="903.0281" y2="130.9321" gradientTransform="matrix(1 0 0 -1 0 254)">
		<stop  offset="0" style="stop-color:#213773"/>
		<stop  offset="1" style="stop-color:#00AEE5"/>
	</linearGradient>
	<path id="XMLID_921_" class="st30" d="M-26.2,121.2C28.9-22.9,271.6,57.9,402,101.3c14.1,4.7,27.5,9.2,38.8,12.7
		c20.6,6.5,46.3,16.8,73.4,27.7c118.9,47.7,281.7,113.1,349.2,1.5l1.9,1.2c-68.4,113.2-232.3,47.4-351.9-0.6
		c-27.1-10.9-52.7-21.2-73.3-27.6c-11.3-3.5-24.6-8-38.8-12.7C271.6,60.3,30.3-20.1-24.1,122L-26.2,121.2z"/>
</g>
<g id="XMLID_918_">
	
		<linearGradient id="XMLID_33_" gradientUnits="userSpaceOnUse" x1="-105.5602" y1="129.5183" x2="903.0281" y2="129.5183" gradientTransform="matrix(1 0 0 -1 0 254)">
		<stop  offset="0" style="stop-color:#213773"/>
		<stop  offset="1" style="stop-color:#00AEE5"/>
	</linearGradient>
	<path id="XMLID_919_" class="st31" d="M-29.1,123.3c55.5-134.4,296.3-60,425.6-20c15.2,4.7,28.4,8.8,40,12.1
		c21.3,6.2,47.6,16.1,75.4,26.5c119.5,45.1,283,106.6,352.4-3.6l1.9,1.2c-70.4,111.8-235,49.9-355.1,4.7
		c-27.8-10.5-54-20.3-75.3-26.5c-11.6-3.4-24.8-7.4-40-12.1C267.2,65.7,27.8-8.4-27,124.2L-29.1,123.3z"/>
</g>
<g id="XMLID_916_">
	
		<linearGradient id="XMLID_34_" gradientUnits="userSpaceOnUse" x1="-105.5602" y1="128.1734" x2="903.0281" y2="128.1734" gradientTransform="matrix(1 0 0 -1 0 254)">
		<stop  offset="0" style="stop-color:#213773"/>
		<stop  offset="1" style="stop-color:#00AEE5"/>
	</linearGradient>
	<path id="XMLID_917_" class="st32" d="M-31.9,125.4C24,0.5,263,68.8,391.4,105.4c15.6,4.5,29.1,8.3,40.9,11.4
		c22,5.9,48.9,15.3,77.5,25.4c119.9,42.2,284.1,99.9,355.5-8.9l1.9,1.2c-72.5,110.4-237.6,52.3-358.2,9.8
		c-28.5-10-55.4-19.5-77.3-25.3c-11.8-3.1-25.3-7-40.9-11.5C263.1,71.1,25.3,3.2-29.8,126.3L-31.9,125.4z"/>
</g>
<g id="XMLID_914_">
	
		<linearGradient id="XMLID_35_" gradientUnits="userSpaceOnUse" x1="-105.5602" y1="126.8007" x2="903.0281" y2="126.8007" gradientTransform="matrix(1 0 0 -1 0 254)">
		<stop  offset="0" style="stop-color:#213773"/>
		<stop  offset="1" style="stop-color:#00AEE5"/>
	</linearGradient>
	<path id="XMLID_915_" class="st33" d="M-34.7,127.4C21.6,12,259,74.2,386.6,107.7c15.8,4.2,29.5,7.7,41.5,10.6
		c22.7,5.5,50.3,14.6,79.5,24.1c120.4,39.4,285.2,93.5,358.7-14.1l1.9,1.3c-74.5,109-240.3,54.6-361.3,15
		c-29.2-9.6-56.7-18.6-79.3-24.1c-12-2.9-25.7-6.5-41.5-10.7c-127-33.2-363.2-95.2-418.8,18.6L-34.7,127.4z"/>
</g>
<g id="XMLID_912_">
	
		<linearGradient id="XMLID_36_" gradientUnits="userSpaceOnUse" x1="-105.5602" y1="125.4063" x2="903.0281" y2="125.4063" gradientTransform="matrix(1 0 0 -1 0 254)">
		<stop  offset="0" style="stop-color:#213773"/>
		<stop  offset="1" style="stop-color:#00AEE5"/>
	</linearGradient>
	<path id="XMLID_913_" class="st34" d="M-37.5,129.5C19.3,23.3,255.3,79.7,382.1,110c16,3.8,29.7,7.1,41.7,9.8
		c23.4,5.2,51.7,13.8,81.6,22.8c120.9,36.7,286.4,87.1,361.9-19.2l1.8,1.3c-76.5,107.6-242.9,57-364.4,20
		c-29.8-9.1-58.1-17.6-81.4-22.8c-12-2.7-25.8-5.9-41.8-9.8c-126.1-30-361-86.1-417,18.5L-37.5,129.5z"/>
</g>
<g id="XMLID_910_">
	
		<linearGradient id="XMLID_37_" gradientUnits="userSpaceOnUse" x1="-105.5602" y1="123.8845" x2="903.0281" y2="123.8845" gradientTransform="matrix(1 0 0 -1 0 254)">
		<stop  offset="0" style="stop-color:#213773"/>
		<stop  offset="1" style="stop-color:#00AEE5"/>
	</linearGradient>
	<path id="XMLID_911_" class="st35" d="M-40.3,131.6c57.4-97,292.2-46.4,418.3-19.2c15.9,3.4,29.6,6.4,41.6,8.8
		c24.1,4.8,53,12.9,83.6,21.5c62.9,17.6,134.1,37.6,200.2,40.3c76.5,3.1,130.4-18,164.8-64.5l1.8,1.3
		c-34.9,47.2-89.4,68.6-166.7,65.4c-66.4-2.7-137.8-22.7-200.7-40.4c-30.5-8.6-59.4-16.7-83.5-21.5c-12-2.4-25.7-5.3-41.6-8.8
		c-125.6-27-359.3-77.4-415.9,18.2L-40.3,131.6z"/>
</g>
<g id="XMLID_908_">
	
		<linearGradient id="XMLID_38_" gradientUnits="userSpaceOnUse" x1="-105.5602" y1="122.4718" x2="903.0281" y2="122.4718" gradientTransform="matrix(1 0 0 -1 0 254)">
		<stop  offset="0" style="stop-color:#213773"/>
		<stop  offset="1" style="stop-color:#00AEE5"/>
	</linearGradient>
	<path id="XMLID_909_" class="st36" d="M-43.1,133.6c58-87.9,291.9-42.9,417.5-18.8c15.7,3,29.2,5.6,41,7.7
		c24.9,4.4,54.5,12,85.8,20.1c63.3,16.3,135,34.8,201.5,36.4c76.9,1.8,131.4-19.6,166.6-65.6l1.8,1.4
		c-35.7,46.6-90.9,68.3-168.5,66.5c-66.8-1.6-138.6-20.1-202-36.5c-31.3-8.1-60.8-15.7-85.6-20.1c-11.8-2.1-25.3-4.7-41-7.7
		C248.8,93,15.9,48.2-41.2,134.9L-43.1,133.6z"/>
</g>
<g id="XMLID_906_">
	
		<linearGradient id="XMLID_39_" gradientUnits="userSpaceOnUse" x1="-105.5602" y1="120.9594" x2="903.0281" y2="120.9594" gradientTransform="matrix(1 0 0 -1 0 254)">
		<stop  offset="0" style="stop-color:#213773"/>
		<stop  offset="1" style="stop-color:#00AEE5"/>
	</linearGradient>
	<path id="XMLID_907_" class="st37" d="M-45.9,135.7c58.7-79,292-39.5,417.3-18.3c15.2,2.6,28.3,4.8,39.7,6.6
		c25.6,4,55.9,11.1,87.9,18.7c129.1,30.4,289.7,68.2,371.2-34.1l1.8,1.4c-36.6,46-92.3,68-170.2,67.5C634.7,177,562.4,160,498.6,145
		c-32-7.5-62.2-14.6-87.7-18.6c-11.5-1.8-24.6-4-39.8-6.6C246.1,98.5,13.7,59.2-44.1,137L-45.9,135.7z"/>
</g>
<g id="XMLID_904_">
	
		<linearGradient id="XMLID_40_" gradientUnits="userSpaceOnUse" x1="-105.5602" y1="119.5082" x2="903.0281" y2="119.5082" gradientTransform="matrix(1 0 0 -1 0 254)">
		<stop  offset="0" style="stop-color:#213773"/>
		<stop  offset="1" style="stop-color:#00AEE5"/>
	</linearGradient>
	<path id="XMLID_905_" class="st38" d="M-48.7,137.7c59.5-70.1,292.6-36,417.9-17.7c14.4,2.1,26.8,3.9,37.7,5.4
		c26.4,3.6,57.3,10.2,90.1,17.2c129.5,27.6,290.7,62,374.2-39l1.7,1.4c-84.4,102-246.3,67.5-376.4,39.8c-32.7-7-63.6-13.6-89.9-17.1
		c-10.9-1.5-23.4-3.3-37.7-5.4C244,104,11.7,70.1-47,139.2L-48.7,137.7z"/>
</g>
<g id="XMLID_902_">
	
		<linearGradient id="XMLID_41_" gradientUnits="userSpaceOnUse" x1="-105.5602" y1="119.7795" x2="903.0281" y2="119.7795" gradientTransform="matrix(1 0 0 -1 0 254)">
		<stop  offset="0" style="stop-color:#213773"/>
		<stop  offset="1" style="stop-color:#00AEE5"/>
	</linearGradient>
	<path id="XMLID_903_" class="st39" d="M-51.5,139.8C9,78.5,242.6,107.2,368.1,122.7c12.8,1.6,24.4,3,34.5,4.2
		c27.2,3.1,58.9,9.2,92.3,15.6c130,24.9,291.7,55.8,377.2-43.8l1.7,1.5c-86.3,100.6-248.8,69.6-379.3,44.6
		c-33.5-6.4-65.1-12.4-92.2-15.6c-10.1-1.2-21.7-2.6-34.5-4.2c-125.1-15.4-358-44.1-417.7,16.4L-51.5,139.8z"/>
</g>
<g id="XMLID_900_">
	
		<linearGradient id="XMLID_42_" gradientUnits="userSpaceOnUse" x1="-105.5602" y1="124.3389" x2="903.0281" y2="124.3389" gradientTransform="matrix(1 0 0 -1 0 254)">
		<stop  offset="0" style="stop-color:#213773"/>
		<stop  offset="1" style="stop-color:#00AEE5"/>
	</linearGradient>
	<path id="XMLID_901_" class="st40" d="M-54.3,141.8c61.8-52.7,296.9-29.1,423.2-16.5c10.8,1.1,20.7,2.1,29.4,2.9
		c28,2.7,60.4,8.2,94.7,14c130.4,22.2,292.7,49.7,380.1-48.6l1.7,1.5c-88.3,99.3-251.2,71.6-382.2,49.3c-34.2-5.8-66.6-11.3-94.5-14
		c-8.7-0.8-18.6-1.8-29.4-2.9c-116.9-11.6-360.4-36-421.5,16L-54.3,141.8z"/>
</g>
<g id="XMLID_898_">
	
		<linearGradient id="XMLID_43_" gradientUnits="userSpaceOnUse" x1="-105.5602" y1="128.7489" x2="903.0281" y2="128.7489" gradientTransform="matrix(1 0 0 -1 0 254)">
		<stop  offset="0" style="stop-color:#213773"/>
		<stop  offset="1" style="stop-color:#00AEE5"/>
	</linearGradient>
	<path id="XMLID_899_" class="st41" d="M-57,143.8c63.8-44.3,311.4-25,430.3-15.8c7.5,0.6,14.5,1.1,20.9,1.6
		c28.9,2.2,62,7.1,97.1,12.3c130.8,19.5,293.6,43.7,382.9-53.3l1.7,1.5c-90.2,97.9-253.6,73.6-384.9,54c-35-5.2-68.1-10.1-96.9-12.3
		c-6.4-0.5-13.3-1-20.9-1.6c-118.8-9.1-365.7-28.3-428.9,15.5L-57,143.8z"/>
</g>
<g id="XMLID_896_">
	
		<linearGradient id="XMLID_44_" gradientUnits="userSpaceOnUse" x1="-105.5602" y1="132.8628" x2="903.0281" y2="132.8628" gradientTransform="matrix(1 0 0 -1 0 254)">
		<stop  offset="0" style="stop-color:#213773"/>
		<stop  offset="1" style="stop-color:#00AEE5"/>
	</linearGradient>
	<path id="XMLID_897_" class="st42" d="M-59.7,145.9c67.5-36.3,332.1-21.4,445.1-15l4.6,0.3c29.8,1.7,63.6,6,99.5,10.6
		c131.2,16.8,294.4,37.7,385.6-58l1.6,1.6c-92,96.5-255.9,75.5-387.6,58.6c-35.8-4.6-69.7-8.9-99.4-10.6l-4.6-0.2
		C282,127.4,8.1,111.9-58.8,148L-59.7,145.9z"/>
</g>
<g id="XMLID_894_">
	
		<linearGradient id="XMLID_45_" gradientUnits="userSpaceOnUse" x1="-105.5602" y1="137.2387" x2="903.0281" y2="137.2387" gradientTransform="matrix(1 0 0 -1 0 254)">
		<stop  offset="0" style="stop-color:#213773"/>
		<stop  offset="1" style="stop-color:#00AEE5"/>
	</linearGradient>
	<path id="XMLID_895_" class="st43" d="M-62.4,147.9c68.4-26.3,336.2-19.5,448.1-15.4c30.7,1.1,65.4,4.9,102.1,8.8
		c131.5,14.1,295.1,31.7,388.3-62.6l1.6,1.6c-93.9,95.1-258.1,77.4-390.1,63.2c-36.7-3.9-71.4-7.7-102-8.8
		c-111.8-4-379.2-10.8-447.2,15.3L-62.4,147.9z"/>
</g>
<g id="XMLID_892_">
	
		<linearGradient id="XMLID_46_" gradientUnits="userSpaceOnUse" x1="-105.5602" y1="140.9" x2="903.0281" y2="140.9" gradientTransform="matrix(1 0 0 -1 0 254)">
		<stop  offset="0" style="stop-color:#213773"/>
		<stop  offset="1" style="stop-color:#00AEE5"/>
	</linearGradient>
	<path id="XMLID_893_" class="st44" d="M-65.1,150c71.7-16.9,356.5-17.7,446.6-16c31.6,0.6,67.2,3.7,104.9,7
		c131.8,11.5,295.8,25.8,390.8-67.1l1.6,1.6c-42.6,41.7-102,65.7-181.6,73.4c-69.2,6.7-144.5,0.1-211-5.7
		c-37.6-3.3-73.2-6.4-104.7-6.9c-90-1.6-374.5-0.8-446,16L-65.1,150z"/>
</g>
<g id="XMLID_890_">
	
		<linearGradient id="XMLID_47_" gradientUnits="userSpaceOnUse" x1="-105.5602" y1="142.4" x2="903.0281" y2="142.4" gradientTransform="matrix(1 0 0 -1 0 254)">
		<stop  offset="0" style="stop-color:#213773"/>
		<stop  offset="1" style="stop-color:#00AEE5"/>
	</linearGradient>
	<path id="XMLID_891_" class="st45" d="M-67.8,152.1c72.4-6.3,346.9-16.6,445-16.7c32.6,0,69.1,2.4,107.7,5
		c138.9,9.4,296.4,20,393.1-71.5l1.6,1.6c-43.4,41.1-103.3,65.3-183,74.1c-69.4,7.6-145.1,2.5-211.8-2c-38.6-2.6-75-5.1-107.6-5
		C279.1,137.7,4.7,148-67.6,154.3L-67.8,152.1z"/>
</g>
<g id="XMLID_888_">
	
		<linearGradient id="XMLID_48_" gradientUnits="userSpaceOnUse" x1="-105.5602" y1="143.5084" x2="903.0281" y2="143.5084" gradientTransform="matrix(1 0 0 -1 0 254)">
		<stop  offset="0" style="stop-color:#213773"/>
		<stop  offset="1" style="stop-color:#00AEE5"/>
	</linearGradient>
	<path id="XMLID_889_" class="st46" d="M-70.6,156.4l0.1-2.3c42.6,2.5,155.9-3.5,265.6-9.3c70.7-3.7,137.5-7.3,177.9-8.1
		c33.7-0.7,71.1,1.1,110.7,3C622.9,146.5,780.6,154,879.1,64l1.5,1.7c-99.2,90.7-257.4,83.2-397,76.5c-39.6-1.9-77-3.7-110.6-3
		c-40.3,0.8-107.1,4.3-177.8,8C85.6,152.9-27.9,158.9-70.6,156.4z"/>
</g>
<g id="XMLID_886_">
	
		<linearGradient id="XMLID_49_" gradientUnits="userSpaceOnUse" x1="-105.5602" y1="143.2551" x2="903.0281" y2="143.2551" gradientTransform="matrix(1 0 0 -1 0 254)">
		<stop  offset="0" style="stop-color:#213773"/>
		<stop  offset="1" style="stop-color:#00AEE5"/>
	</linearGradient>
	<path id="XMLID_887_" class="st47" d="M-73.6,158.5l0.5-2.2c49.6,10,196.6-0.9,314.6-9.7c52-3.9,96.8-7.2,127.3-8.3
		c34.8-1.3,73.2-0.2,113.9,0.9c139.3,4,297.2,8.5,397.4-80.2l1.5,1.7c-100.8,89.2-259.2,84.7-398.9,80.7
		c-40.7-1.2-79.1-2.2-113.8-0.9c-30.4,1.2-75.3,4.5-127.2,8.3C123.5,157.6-23.6,168.5-73.6,158.5z"/>
</g>
<g id="XMLID_884_">
	
		<linearGradient id="XMLID_50_" gradientUnits="userSpaceOnUse" x1="-105.5602" y1="142.5914" x2="903.0281" y2="142.5914" gradientTransform="matrix(1 0 0 -1 0 254)">
		<stop  offset="0" style="stop-color:#213773"/>
		<stop  offset="1" style="stop-color:#00AEE5"/>
	</linearGradient>
	<path id="XMLID_885_" class="st48" d="M-76.5,160.6l0.7-2.1c52.6,17.9,214,2.2,331.9-9.3c43.9-4.3,81.8-8,108.5-9.5
		c36-2,75.5-1.7,117.3-1.3c139.4,1.3,297.4,2.8,399.2-84.4l1.5,1.7c-102.4,87.7-260.9,86.2-400.7,84.9c-41.8-0.4-81.3-0.8-117.2,1.3
		c-26.6,1.5-64.5,5.2-108.4,9.5C138.2,162.9-23.5,178.7-76.5,160.6z"/>
</g>
<g id="XMLID_882_">
	
		<linearGradient id="XMLID_51_" gradientUnits="userSpaceOnUse" x1="-105.5602" y1="141.6776" x2="903.0281" y2="141.6776" gradientTransform="matrix(1 0 0 -1 0 254)">
		<stop  offset="0" style="stop-color:#213773"/>
		<stop  offset="1" style="stop-color:#00AEE5"/>
	</linearGradient>
	<path id="XMLID_883_" class="st49" d="M-79.5,162.7l1-2c54.3,26,219.6,6,340.3-8.7c39.7-4.8,74-9,98.5-10.8
		c37.2-2.8,77.9-3.2,121-3.6c139.4-1.3,297.4-2.8,400.7-88.4l1.5,1.7c-104,86.2-262.4,87.6-402.1,89c-43.1,0.4-83.7,0.8-120.8,3.6
		c-24.5,1.8-58.7,6-98.4,10.8C141.1,168.9-24.6,188.9-79.5,162.7z"/>
</g>
<g id="XMLID_880_">
	
		<linearGradient id="XMLID_52_" gradientUnits="userSpaceOnUse" x1="-105.5602" y1="140.8012" x2="903.0281" y2="140.8012" gradientTransform="matrix(1 0 0 -1 0 254)">
		<stop  offset="0" style="stop-color:#213773"/>
		<stop  offset="1" style="stop-color:#00AEE5"/>
	</linearGradient>
	<path id="XMLID_881_" class="st50" d="M-82.4,164.7l1.2-1.9c55.6,34.2,222.8,9.8,344.9-8c37.1-5.4,69.2-10.1,92.4-12.2
		c38.5-3.6,80.5-4.8,124.9-6c139.3-3.9,297.2-8.3,402-92.4l1.4,1.8C779,130.6,620.7,135,481,138.9c-44.4,1.2-86.3,2.4-124.7,6
		c-23.1,2.2-55.2,6.8-92.3,12.2C141.6,174.9-26.1,199.3-82.4,164.7z"/>
</g>
<g id="XMLID_878_">
	
		<linearGradient id="XMLID_53_" gradientUnits="userSpaceOnUse" x1="-105.5602" y1="139.9271" x2="903.0281" y2="139.9271" gradientTransform="matrix(1 0 0 -1 0 254)">
		<stop  offset="0" style="stop-color:#213773"/>
		<stop  offset="1" style="stop-color:#00AEE5"/>
	</linearGradient>
	<path id="XMLID_879_" class="st51" d="M-85.4,166.7l1.4-1.8c56.6,42.3,224.8,13.7,347.6-7.2c35.4-6,66-11.2,88.3-13.7
		c40-4.5,83.3-6.5,129.1-8.6c139.1-6.4,296.8-13.7,403-96.2l1.4,1.8c-106.8,83-264.8,90.2-404.3,96.7c-45.8,2.1-89.1,4.1-128.9,8.6
		C330,148.8,299.4,154,264,160C140.8,180.9-28,209.6-85.4,166.7z"/>
</g>
<g id="XMLID_876_">
	
		<linearGradient id="XMLID_54_" gradientUnits="userSpaceOnUse" x1="-105.5602" y1="138.999" x2="903.0281" y2="138.999" gradientTransform="matrix(1 0 0 -1 0 254)">
		<stop  offset="0" style="stop-color:#213773"/>
		<stop  offset="1" style="stop-color:#00AEE5"/>
	</linearGradient>
	<path id="XMLID_877_" class="st52" d="M-88.3,168.8l1.5-1.7c57.5,50.5,233,16.2,349.1-6.5c34.2-6.7,63.7-12.4,85.3-15.2
		c41.5-5.4,86.2-8.2,133.6-11.3c138.8-8.9,296.2-19,403.7-99.9l1.4,1.8c-108,81.3-265.8,91.4-404.9,100.3
		c-47.4,3-92.1,5.9-133.5,11.3c-21.6,2.8-51,8.5-85.1,15.2C139.2,187-30,220-88.3,168.8z"/>
</g>
<g id="XMLID_874_">
	
		<linearGradient id="XMLID_55_" gradientUnits="userSpaceOnUse" x1="-105.5602" y1="138.2992" x2="903.0281" y2="138.2992" gradientTransform="matrix(1 0 0 -1 0 254)">
		<stop  offset="0" style="stop-color:#213773"/>
		<stop  offset="1" style="stop-color:#00AEE5"/>
	</linearGradient>
	<path id="XMLID_875_" class="st53" d="M-91.2,170.8l1.6-1.6c58.2,58.7,233.8,19.9,349.9-5.7c33.2-7.3,61.9-13.6,83-16.8
		c43.1-6.4,89.5-10.2,138.5-14.2c138.5-11.3,295.4-24.1,404-103.3l1.3,1.8c-109.2,79.6-266.4,92.4-405.2,103.8
		c-49,4-95.4,7.8-138.4,14.1c-21,3.1-49.7,9.4-82.9,16.7C144.2,191.5-32.1,230.4-91.2,170.8z"/>
</g>
<g id="XMLID_872_">
	
		<linearGradient id="XMLID_56_" gradientUnits="userSpaceOnUse" x1="-105.5602" y1="137.3028" x2="903.0281" y2="137.3028" gradientTransform="matrix(1 0 0 -1 0 254)">
		<stop  offset="0" style="stop-color:#213773"/>
		<stop  offset="1" style="stop-color:#00AEE5"/>
	</linearGradient>
	<path id="XMLID_873_" class="st54" d="M-94,172.9l1.7-1.5c58.9,66.8,234.2,23.7,350.3-4.8c32.5-8,60.5-14.9,81.2-18.3
		c44.9-7.4,93-12.2,143.9-17.2C627.7,116.7,777.3,101.8,887,24.4l1.3,1.9c-110.2,77.8-260.1,92.7-405,107
		c-50.9,5-98.9,9.8-143.7,17.2c-20.6,3.4-48.6,10.3-81.1,18.3C141.9,197.4-34.2,240.7-94,172.9z"/>
</g>
<g id="XMLID_870_">
	
		<linearGradient id="XMLID_57_" gradientUnits="userSpaceOnUse" x1="-105.5602" y1="136.3377" x2="903.0281" y2="136.3377" gradientTransform="matrix(1 0 0 -1 0 254)">
		<stop  offset="0" style="stop-color:#213773"/>
		<stop  offset="1" style="stop-color:#00AEE5"/>
	</linearGradient>
	<path id="XMLID_871_" class="st55" d="M-96.9,175l1.8-1.4c59.5,74.9,234.5,27.4,350.3-4c31.9-8.7,59.4-16.1,79.8-19.9
		c46.8-8.6,96.8-14.4,149.7-20.5c143.9-16.7,292.7-34,403.3-109.7l1.3,1.9c-111.1,76-260.2,93.3-404.4,110.1
		c-52.9,6.1-102.8,11.9-149.5,20.5c-20.3,3.7-47.8,11.2-79.6,19.8C139.4,203.3-36.5,251.1-96.9,175z"/>
</g>
<g id="XMLID_868_">
	
		<linearGradient id="XMLID_58_" gradientUnits="userSpaceOnUse" x1="-105.5602" y1="135.4919" x2="903.0281" y2="135.4919" gradientTransform="matrix(1 0 0 -1 0 254)">
		<stop  offset="0" style="stop-color:#213773"/>
		<stop  offset="1" style="stop-color:#00AEE5"/>
	</linearGradient>
	<path id="XMLID_869_" class="st56" d="M-99.8,177l1.8-1.3c60.1,83.1,234.6,31.2,350-3.1c31.4-9.3,58.5-17.4,78.7-21.5
		c48.9-9.8,100.9-16.8,155.9-24.1c143-19,290.9-38.7,402.3-112.6l1.3,1.9C778.4,90.5,630.3,110.2,487,129.2
		c-55,7.3-107,14.2-155.8,24.1c-20,4-47.1,12.1-78.5,21.4C136.7,209.3-38.7,261.4-99.8,177z"/>
</g>
</svg>
